M48
INCH
T1C0.0157
T2C0.0236
T3C0.0394
T4C0.0866
%
G90
G05
T1
X2.6063Y-2.8819
X2.685Y-3.0709
X2.686Y-3.252
X2.7049Y-2.9764
X2.7402Y-3.3543
X2.7638Y-2.9764
X2.7657Y-3.2146
X2.937Y-2.6614
X2.937Y-2.7638
X2.937Y-3.0157
X2.937Y-3.2598
X2.9449Y-3.1102
X2.9528Y-2.9134
X2.9843Y-3.0551
X2.9843Y-3.2835
X2.9921Y-2.9291
X3.0394Y-3.126
X3.0787Y-3.1732
X3.0866Y-3.6299
X3.1496Y-3.5984
X3.189Y-4.0
X3.2047Y-3.2756
X3.2132Y-3.9128
X3.214Y-3.8628
X3.2185Y-4.0846
X3.2185Y-4.1339
X3.2205Y-3.7657
X3.2238Y-3.6364
X3.2598Y-3.2756
X3.3071Y-3.2756
X3.315Y-2.8504
X3.3543Y-3.2756
X3.3622Y-2.6772
X3.4094Y-3.2756
X3.435Y-3.4587
X3.4488Y-2.9213
X3.4567Y-2.7638
T2
X3.7835Y-2.8533
X3.7835Y-2.9026
X3.7835Y-2.9518
X3.7835Y-3.001
X3.7835Y-3.0502
X3.7835Y-3.0994
X3.7835Y-3.1486
X3.7835Y-3.1978
X3.7835Y-3.247
X3.7835Y-3.2963
X3.7835Y-3.4478
X3.7835Y-3.497
X3.7835Y-3.5463
X3.7835Y-3.5955
X3.7835Y-3.6447
X3.7835Y-3.6939
X3.7835Y-3.7431
X3.7835Y-3.7923
X3.7835Y-3.8415
X3.7835Y-3.8907
X3.7835Y-3.94
X3.7835Y-3.9892
T3
X2.6191Y-3.4862
X2.6191Y-3.5862
X2.6191Y-3.6862
X2.6191Y-3.7862
X2.6191Y-3.8862
X2.747Y-3.4862
X2.747Y-3.5862
X2.747Y-3.6862
X2.747Y-3.7862
X2.747Y-3.8862
X2.8327Y-4.0463
X2.8327Y-4.1624
X2.875Y-3.4862
X2.875Y-3.5862
X2.875Y-3.6862
X2.875Y-3.7862
X2.875Y-3.8862
X2.9327Y-4.0463
X2.9327Y-4.1624
T4
X2.6772Y-2.7165
X2.6772Y-4.1142
X3.7205Y-2.7165
X3.7205Y-4.1142
T0
M30
