%TF.GenerationSoftware,KiCad,Pcbnew,(6.0.0-0)*%
%TF.CreationDate,2022-04-13T11:49:57+02:00*%
%TF.ProjectId,Main,4d61696e-2e6b-4696-9361-645f70636258,rev?*%
%TF.SameCoordinates,Original*%
%TF.FileFunction,Copper,L2,Bot*%
%TF.FilePolarity,Positive*%
%FSLAX46Y46*%
G04 Gerber Fmt 4.6, Leading zero omitted, Abs format (unit mm)*
G04 Created by KiCad (PCBNEW (6.0.0-0)) date 2022-04-13 11:49:57*
%MOMM*%
%LPD*%
G01*
G04 APERTURE LIST*
G04 Aperture macros list*
%AMRoundRect*
0 Rectangle with rounded corners*
0 $1 Rounding radius*
0 $2 $3 $4 $5 $6 $7 $8 $9 X,Y pos of 4 corners*
0 Add a 4 corners polygon primitive as box body*
4,1,4,$2,$3,$4,$5,$6,$7,$8,$9,$2,$3,0*
0 Add four circle primitives for the rounded corners*
1,1,$1+$1,$2,$3*
1,1,$1+$1,$4,$5*
1,1,$1+$1,$6,$7*
1,1,$1+$1,$8,$9*
0 Add four rect primitives between the rounded corners*
20,1,$1+$1,$2,$3,$4,$5,0*
20,1,$1+$1,$4,$5,$6,$7,0*
20,1,$1+$1,$6,$7,$8,$9,0*
20,1,$1+$1,$8,$9,$2,$3,0*%
G04 Aperture macros list end*
%TA.AperFunction,ComponentPad*%
%ADD10R,1.700000X1.700000*%
%TD*%
%TA.AperFunction,ComponentPad*%
%ADD11O,1.700000X1.700000*%
%TD*%
%TA.AperFunction,ComponentPad*%
%ADD12C,4.400000*%
%TD*%
%TA.AperFunction,ComponentPad*%
%ADD13RoundRect,0.225000X-0.475000X0.225000X-0.475000X-0.225000X0.475000X-0.225000X0.475000X0.225000X0*%
%TD*%
%TA.AperFunction,ComponentPad*%
%ADD14O,1.400000X0.900000*%
%TD*%
%TA.AperFunction,SMDPad,CuDef*%
%ADD15R,1.500000X1.500000*%
%TD*%
%TA.AperFunction,ViaPad*%
%ADD16C,0.800000*%
%TD*%
%TA.AperFunction,Conductor*%
%ADD17C,0.250000*%
%TD*%
%TA.AperFunction,Conductor*%
%ADD18C,0.800000*%
%TD*%
G04 APERTURE END LIST*
D10*
%TO.P,J8,1,Pin_1*%
%TO.N,GND*%
X71950000Y-105725000D03*
D11*
%TO.P,J8,2,Pin_2*%
%TO.N,/ACT_POWER_AUX*%
X74490000Y-105725000D03*
%TD*%
D12*
%TO.P,H4,1,1*%
%TO.N,GND*%
X68000000Y-69000000D03*
%TD*%
D10*
%TO.P,J4,1,Pin_1*%
%TO.N,GND*%
X66525000Y-88550000D03*
D11*
%TO.P,J4,2,Pin_2*%
X66525000Y-91090000D03*
%TO.P,J4,3,Pin_3*%
X66525000Y-93630000D03*
%TO.P,J4,4,Pin_4*%
X66525000Y-96170000D03*
%TO.P,J4,5,Pin_5*%
X66525000Y-98710000D03*
%TD*%
D10*
%TO.P,J5,1,Pin_1*%
%TO.N,/ACT_POWER*%
X69775000Y-88550000D03*
D11*
%TO.P,J5,2,Pin_2*%
X69775000Y-91090000D03*
%TO.P,J5,3,Pin_3*%
X69775000Y-93630000D03*
%TO.P,J5,4,Pin_4*%
X69775000Y-96170000D03*
%TO.P,J5,5,Pin_5*%
X69775000Y-98710000D03*
%TD*%
D10*
%TO.P,J6,1,Pin_1*%
%TO.N,/S1*%
X73025000Y-88550000D03*
D11*
%TO.P,J6,2,Pin_2*%
%TO.N,/S2*%
X73025000Y-91090000D03*
%TO.P,J6,3,Pin_3*%
%TO.N,/S3*%
X73025000Y-93630000D03*
%TO.P,J6,4,Pin_4*%
%TO.N,/S4*%
X73025000Y-96170000D03*
%TO.P,J6,5,Pin_5*%
%TO.N,/S5*%
X73025000Y-98710000D03*
%TD*%
D13*
%TO.P,J7,1,Pin_1*%
%TO.N,GND*%
X96100000Y-87575000D03*
D14*
%TO.P,J7,2,Pin_2*%
%TO.N,/M6*%
X96100000Y-88825000D03*
%TO.P,J7,3,Pin_3*%
%TO.N,GND*%
X96100000Y-90075000D03*
%TO.P,J7,4,Pin_4*%
%TO.N,/M5*%
X96100000Y-91325000D03*
%TO.P,J7,5,Pin_5*%
%TO.N,GND*%
X96100000Y-92575000D03*
%TO.P,J7,6,Pin_6*%
%TO.N,/M4*%
X96100000Y-93825000D03*
%TO.P,J7,7,Pin_7*%
%TO.N,GND*%
X96100000Y-95075000D03*
%TO.P,J7,8,Pin_8*%
%TO.N,/M3*%
X96100000Y-96325000D03*
%TO.P,J7,9,Pin_9*%
%TO.N,GND*%
X96100000Y-97575000D03*
%TO.P,J7,10,Pin_10*%
%TO.N,/M2*%
X96100000Y-98825000D03*
%TO.P,J7,11,Pin_11*%
%TO.N,GND*%
X96100000Y-100075000D03*
%TO.P,J7,12,Pin_12*%
%TO.N,/M1*%
X96100000Y-101325000D03*
%TD*%
D12*
%TO.P,H2,1,1*%
%TO.N,GND*%
X94500000Y-69000000D03*
%TD*%
D10*
%TO.P,J3,1,Pin_1*%
%TO.N,GND*%
X71950000Y-102775000D03*
D11*
%TO.P,J3,2,Pin_2*%
%TO.N,/ACT_POWER*%
X74490000Y-102775000D03*
%TD*%
D12*
%TO.P,H1,1,1*%
%TO.N,GND*%
X68000000Y-104500000D03*
%TD*%
%TO.P,H3,1,1*%
%TO.N,GND*%
X94500000Y-104500000D03*
%TD*%
D13*
%TO.P,J1,1,Pin_1*%
%TO.N,/IO23*%
X96100000Y-72475000D03*
D14*
%TO.P,J1,2,Pin_2*%
%TO.N,/IO34*%
X96100000Y-73725000D03*
%TO.P,J1,3,Pin_3*%
%TO.N,/IO35*%
X96100000Y-74975000D03*
%TO.P,J1,4,Pin_4*%
%TO.N,/IO32*%
X96100000Y-76225000D03*
%TO.P,J1,5,Pin_5*%
%TO.N,/IO33*%
X96100000Y-77475000D03*
%TO.P,J1,6,Pin_6*%
%TO.N,/IO25*%
X96100000Y-78725000D03*
%TO.P,J1,7,Pin_7*%
%TO.N,/IO26*%
X96100000Y-79975000D03*
%TO.P,J1,8,Pin_8*%
%TO.N,/IO27*%
X96100000Y-81225000D03*
%TO.P,J1,9,Pin_9*%
%TO.N,GND*%
X96100000Y-82475000D03*
%TO.P,J1,10,Pin_10*%
%TO.N,+3V3*%
X96100000Y-83725000D03*
%TD*%
D15*
%TO.P,TP2,1,1*%
%TO.N,/RXD0*%
X83400000Y-70400000D03*
%TD*%
%TO.P,TP3,1,1*%
%TO.N,/TXD0*%
X83400000Y-67800000D03*
%TD*%
%TO.P,TP1,1,1*%
%TO.N,/EN*%
X78600000Y-70250000D03*
%TD*%
%TO.P,TP5,1,1*%
%TO.N,GND*%
X78600000Y-67800000D03*
%TD*%
D16*
%TO.N,GND*%
X68704500Y-75600000D03*
X87250000Y-87850000D03*
X66200000Y-73200000D03*
X75800000Y-83400000D03*
X70200000Y-75600000D03*
X81800000Y-95650000D03*
X74600000Y-67600000D03*
X78400000Y-92200000D03*
%TO.N,/EN*%
X74600000Y-70200000D03*
%TO.N,+3V3*%
X80000000Y-91400000D03*
X68200000Y-78000000D03*
X69600000Y-85200000D03*
%TO.N,/I2C_SDA*%
X68224500Y-82600000D03*
X87600000Y-74200000D03*
%TO.N,/I2C_SCL*%
X70250000Y-81650000D03*
X87800000Y-70200000D03*
%TO.N,/S1*%
X74600000Y-82800000D03*
%TO.N,/RXD0*%
X84200000Y-72400000D03*
%TO.N,/TXD0*%
X85400000Y-68000000D03*
%TO.N,/ACT_POWER_AUX*%
X81000000Y-101600000D03*
%TO.N,/S9*%
X81635000Y-98115000D03*
X82800000Y-83200000D03*
%TO.N,/S8*%
X84000000Y-83200000D03*
X81615000Y-99385000D03*
%TO.N,/S10*%
X81400000Y-83200000D03*
X81885000Y-92365000D03*
%TO.N,/S7*%
X85200000Y-83200000D03*
X81750000Y-103750000D03*
%TO.N,/S6*%
X81750000Y-105000000D03*
X86600000Y-83200000D03*
%TO.N,/IO25*%
X74800000Y-79000000D03*
%TO.N,/IO26*%
X77200000Y-79400000D03*
%TO.N,/IO27*%
X78200000Y-80600000D03*
%TO.N,/IO32*%
X74600000Y-76600000D03*
%TO.N,/IO33*%
X75800000Y-77600000D03*
%TO.N,/IO34*%
X75000000Y-74000000D03*
%TO.N,/IO35*%
X76000000Y-74400000D03*
%TD*%
D17*
%TO.N,GND*%
X74600000Y-67600000D02*
X74800000Y-67800000D01*
X74800000Y-67800000D02*
X78600000Y-67800000D01*
D18*
X71950000Y-102775000D02*
X71950000Y-105725000D01*
D17*
%TO.N,/EN*%
X74650000Y-70250000D02*
X78600000Y-70250000D01*
X74600000Y-70200000D02*
X74650000Y-70250000D01*
D18*
%TO.N,+3V3*%
X80000000Y-84800000D02*
X80000000Y-91400000D01*
X68400000Y-85200000D02*
X69600000Y-85200000D01*
X78400000Y-83200000D02*
X80000000Y-84800000D01*
X66400000Y-79800000D02*
X66400000Y-83200000D01*
X66400000Y-83200000D02*
X68400000Y-85200000D01*
X90125000Y-83725000D02*
X96100000Y-83725000D01*
D17*
X70000000Y-85200000D02*
X69600000Y-85200000D01*
D18*
X68200000Y-78000000D02*
X66400000Y-79800000D01*
X78400000Y-83200000D02*
X79600000Y-82000000D01*
X79600000Y-82000000D02*
X88400000Y-82000000D01*
X76200000Y-81000000D02*
X78400000Y-83200000D01*
X88400000Y-82000000D02*
X90125000Y-83725000D01*
X74400000Y-81000000D02*
X76200000Y-81000000D01*
X70200000Y-85200000D02*
X74400000Y-81000000D01*
X69600000Y-85200000D02*
X70200000Y-85200000D01*
D17*
%TO.N,/I2C_SDA*%
X81600000Y-72800000D02*
X83000000Y-74200000D01*
X75000000Y-72800000D02*
X81600000Y-72800000D01*
X68224500Y-82600000D02*
X71200000Y-82600000D01*
X72000000Y-81800000D02*
X72000000Y-75800000D01*
X83000000Y-74200000D02*
X87600000Y-74200000D01*
X71200000Y-82600000D02*
X72000000Y-81800000D01*
X72000000Y-75800000D02*
X75000000Y-72800000D01*
%TO.N,/I2C_SCL*%
X69475489Y-80875489D02*
X69475489Y-73124511D01*
X86200000Y-71800000D02*
X86200000Y-72600000D01*
X86200000Y-72600000D02*
X85200000Y-73600000D01*
X70250000Y-81650000D02*
X69475489Y-80875489D01*
X82000000Y-72200000D02*
X83400000Y-73600000D01*
X70400000Y-72200000D02*
X82000000Y-72200000D01*
X85200000Y-73600000D02*
X83400000Y-73600000D01*
X87800000Y-70200000D02*
X86200000Y-71800000D01*
X69475489Y-73124511D02*
X70400000Y-72200000D01*
%TO.N,/S1*%
X74600000Y-82800000D02*
X73025000Y-84375000D01*
X73025000Y-84375000D02*
X73025000Y-88550000D01*
%TO.N,/RXD0*%
X83400000Y-70400000D02*
X83400000Y-71600000D01*
X83400000Y-71600000D02*
X84200000Y-72400000D01*
%TO.N,/TXD0*%
X85400000Y-68000000D02*
X83600000Y-68000000D01*
X83600000Y-68000000D02*
X83400000Y-67800000D01*
D18*
%TO.N,/ACT_POWER_AUX*%
X78665000Y-101600000D02*
X78032500Y-102232500D01*
X81000000Y-101600000D02*
X78665000Y-101600000D01*
X74540000Y-105725000D02*
X78032500Y-102232500D01*
D17*
%TO.N,/S9*%
X82800000Y-83200000D02*
X82800000Y-96950000D01*
X82800000Y-96950000D02*
X81635000Y-98115000D01*
%TO.N,/S8*%
X84000000Y-97000000D02*
X81615000Y-99385000D01*
X84000000Y-83200000D02*
X84000000Y-97000000D01*
%TO.N,/S10*%
X81400000Y-83200000D02*
X81400000Y-91880000D01*
X81400000Y-91880000D02*
X81885000Y-92365000D01*
%TO.N,/S7*%
X81750000Y-103750000D02*
X85000000Y-100500000D01*
X85200000Y-83200000D02*
X85000000Y-83400000D01*
X85000000Y-100500000D02*
X85000000Y-83400000D01*
%TO.N,/S6*%
X81750000Y-105000000D02*
X86000000Y-100750000D01*
X86000000Y-100750000D02*
X86000000Y-83800000D01*
X86000000Y-83800000D02*
X86600000Y-83200000D01*
%TO.N,/IO25*%
X87475000Y-78725000D02*
X96100000Y-78725000D01*
X76200000Y-79000000D02*
X77100000Y-78100000D01*
X74800000Y-79000000D02*
X76200000Y-79000000D01*
X77100000Y-78100000D02*
X86850000Y-78100000D01*
X86850000Y-78100000D02*
X87475000Y-78725000D01*
%TO.N,/IO26*%
X89850000Y-79400000D02*
X85200000Y-79400000D01*
X90425000Y-79975000D02*
X89850000Y-79400000D01*
X77200000Y-79400000D02*
X85200000Y-79400000D01*
X96100000Y-79975000D02*
X90425000Y-79975000D01*
%TO.N,/IO27*%
X90475000Y-81225000D02*
X89450000Y-80200000D01*
X89450000Y-80200000D02*
X78600000Y-80200000D01*
X78600000Y-80200000D02*
X78200000Y-80600000D01*
X96100000Y-81225000D02*
X90475000Y-81225000D01*
%TO.N,/IO32*%
X75600000Y-75600000D02*
X81200000Y-75600000D01*
X82000000Y-76400000D02*
X86200000Y-76400000D01*
X89400000Y-76400000D02*
X86200000Y-76400000D01*
X89575000Y-76225000D02*
X89400000Y-76400000D01*
X96100000Y-76225000D02*
X89575000Y-76225000D01*
X81200000Y-75600000D02*
X82000000Y-76400000D01*
X74600000Y-76600000D02*
X75600000Y-75600000D01*
%TO.N,/IO33*%
X86850000Y-77000000D02*
X76400000Y-77000000D01*
X96100000Y-77475000D02*
X87325000Y-77475000D01*
X76400000Y-77000000D02*
X75800000Y-77600000D01*
X87325000Y-77475000D02*
X86850000Y-77000000D01*
%TO.N,/IO34*%
X88625489Y-74924511D02*
X82524511Y-74924511D01*
X89825000Y-73725000D02*
X88625489Y-74924511D01*
X96100000Y-73725000D02*
X89825000Y-73725000D01*
X81200000Y-73600000D02*
X81000000Y-73400000D01*
X76400000Y-73400000D02*
X75600000Y-73400000D01*
X75600000Y-73400000D02*
X75000000Y-74000000D01*
X82524511Y-74924511D02*
X81200000Y-73600000D01*
X81000000Y-73400000D02*
X76400000Y-73400000D01*
%TO.N,/IO35*%
X89100000Y-75600000D02*
X87000000Y-75600000D01*
X96100000Y-74975000D02*
X89725000Y-74975000D01*
X81000000Y-74400000D02*
X82200000Y-75600000D01*
X89725000Y-74975000D02*
X89100000Y-75600000D01*
X82200000Y-75600000D02*
X87000000Y-75600000D01*
X76000000Y-74400000D02*
X81000000Y-74400000D01*
X96000000Y-74625000D02*
X95700489Y-74924511D01*
%TD*%
%TA.AperFunction,Conductor*%
%TO.N,GND*%
G36*
X75839618Y-81928502D02*
G01*
X75860592Y-81945405D01*
X79054595Y-85139408D01*
X79088621Y-85201720D01*
X79091500Y-85228503D01*
X79091500Y-91345784D01*
X79090810Y-91358955D01*
X79086496Y-91400000D01*
X79087186Y-91406565D01*
X79104426Y-91570591D01*
X79106458Y-91589928D01*
X79165473Y-91771556D01*
X79260960Y-91936944D01*
X79265378Y-91941851D01*
X79265379Y-91941852D01*
X79371472Y-92059680D01*
X79388747Y-92078866D01*
X79473470Y-92140421D01*
X79530978Y-92182203D01*
X79543248Y-92191118D01*
X79549276Y-92193802D01*
X79549278Y-92193803D01*
X79708146Y-92264535D01*
X79717712Y-92268794D01*
X79797168Y-92285683D01*
X79898056Y-92307128D01*
X79898061Y-92307128D01*
X79904513Y-92308500D01*
X80095487Y-92308500D01*
X80101939Y-92307128D01*
X80101944Y-92307128D01*
X80202832Y-92285683D01*
X80282288Y-92268794D01*
X80291854Y-92264535D01*
X80450722Y-92193803D01*
X80450724Y-92193802D01*
X80456752Y-92191118D01*
X80469023Y-92182203D01*
X80602217Y-92085431D01*
X80611253Y-92078866D01*
X80612076Y-92077952D01*
X80674288Y-92048097D01*
X80744741Y-92056862D01*
X80799272Y-92102326D01*
X80810227Y-92122412D01*
X80811769Y-92125975D01*
X80813982Y-92133593D01*
X80818020Y-92140420D01*
X80818020Y-92140421D01*
X80824293Y-92151028D01*
X80832988Y-92168776D01*
X80840448Y-92187617D01*
X80845110Y-92194033D01*
X80845110Y-92194034D01*
X80866436Y-92223387D01*
X80872952Y-92233307D01*
X80888126Y-92258964D01*
X80895458Y-92271362D01*
X80909779Y-92285683D01*
X80922619Y-92300716D01*
X80934528Y-92317107D01*
X80940637Y-92322161D01*
X80941288Y-92322854D01*
X80973339Y-92386204D01*
X80974746Y-92395926D01*
X80991458Y-92554928D01*
X81050473Y-92736556D01*
X81145960Y-92901944D01*
X81150378Y-92906851D01*
X81150379Y-92906852D01*
X81269325Y-93038955D01*
X81273747Y-93043866D01*
X81428248Y-93156118D01*
X81434276Y-93158802D01*
X81434278Y-93158803D01*
X81517544Y-93195875D01*
X81602712Y-93233794D01*
X81696113Y-93253647D01*
X81783056Y-93272128D01*
X81783061Y-93272128D01*
X81789513Y-93273500D01*
X81980487Y-93273500D01*
X81986942Y-93272128D01*
X81986951Y-93272127D01*
X82014302Y-93266313D01*
X82085093Y-93271714D01*
X82141726Y-93314530D01*
X82166220Y-93381168D01*
X82166500Y-93389559D01*
X82166500Y-96635405D01*
X82146498Y-96703526D01*
X82129595Y-96724501D01*
X81684499Y-97169596D01*
X81622187Y-97203621D01*
X81595404Y-97206500D01*
X81539513Y-97206500D01*
X81533061Y-97207872D01*
X81533056Y-97207872D01*
X81446112Y-97226353D01*
X81352712Y-97246206D01*
X81346682Y-97248891D01*
X81346681Y-97248891D01*
X81184278Y-97321197D01*
X81184276Y-97321198D01*
X81178248Y-97323882D01*
X81172907Y-97327762D01*
X81172906Y-97327763D01*
X81170514Y-97329501D01*
X81023747Y-97436134D01*
X81019326Y-97441044D01*
X81019325Y-97441045D01*
X80945389Y-97523160D01*
X80895960Y-97578056D01*
X80855101Y-97648826D01*
X80815816Y-97716870D01*
X80800473Y-97743444D01*
X80741458Y-97925072D01*
X80740768Y-97931633D01*
X80740768Y-97931635D01*
X80734514Y-97991136D01*
X80721496Y-98115000D01*
X80722186Y-98121565D01*
X80737786Y-98269987D01*
X80741458Y-98304928D01*
X80800473Y-98486556D01*
X80895960Y-98651944D01*
X80900380Y-98656852D01*
X80904259Y-98662192D01*
X80902573Y-98663417D01*
X80929051Y-98718568D01*
X80920299Y-98789024D01*
X80898337Y-98823203D01*
X80875960Y-98848056D01*
X80872657Y-98853777D01*
X80786490Y-99003023D01*
X80780473Y-99013444D01*
X80721458Y-99195072D01*
X80720768Y-99201633D01*
X80720768Y-99201635D01*
X80707380Y-99329020D01*
X80701496Y-99385000D01*
X80702186Y-99391565D01*
X80715169Y-99515088D01*
X80721458Y-99574928D01*
X80780473Y-99756556D01*
X80783776Y-99762278D01*
X80783777Y-99762279D01*
X80795836Y-99783165D01*
X80875960Y-99921944D01*
X80880378Y-99926851D01*
X80880379Y-99926852D01*
X80985440Y-100043534D01*
X81003747Y-100063866D01*
X81158248Y-100176118D01*
X81164276Y-100178802D01*
X81164278Y-100178803D01*
X81326681Y-100251109D01*
X81332712Y-100253794D01*
X81414229Y-100271121D01*
X81513056Y-100292128D01*
X81513061Y-100292128D01*
X81519513Y-100293500D01*
X81710487Y-100293500D01*
X81716939Y-100292128D01*
X81716944Y-100292128D01*
X81815771Y-100271121D01*
X81897288Y-100253794D01*
X81903319Y-100251109D01*
X82065722Y-100178803D01*
X82065724Y-100178802D01*
X82071752Y-100176118D01*
X82226253Y-100063866D01*
X82244560Y-100043534D01*
X82349621Y-99926852D01*
X82349622Y-99926851D01*
X82354040Y-99921944D01*
X82434164Y-99783165D01*
X82446223Y-99762279D01*
X82446224Y-99762278D01*
X82449527Y-99756556D01*
X82508542Y-99574928D01*
X82525907Y-99409706D01*
X82552920Y-99344050D01*
X82562122Y-99333782D01*
X84151405Y-97744499D01*
X84213717Y-97710473D01*
X84284532Y-97715538D01*
X84341368Y-97758085D01*
X84366179Y-97824605D01*
X84366500Y-97833594D01*
X84366500Y-100185406D01*
X84346498Y-100253527D01*
X84329595Y-100274501D01*
X81799500Y-102804595D01*
X81737188Y-102838621D01*
X81710405Y-102841500D01*
X81654513Y-102841500D01*
X81648061Y-102842872D01*
X81648056Y-102842872D01*
X81561113Y-102861353D01*
X81467712Y-102881206D01*
X81461682Y-102883891D01*
X81461681Y-102883891D01*
X81299278Y-102956197D01*
X81299276Y-102956198D01*
X81293248Y-102958882D01*
X81287907Y-102962762D01*
X81287906Y-102962763D01*
X81270806Y-102975187D01*
X81138747Y-103071134D01*
X81134326Y-103076044D01*
X81134325Y-103076045D01*
X81025736Y-103196646D01*
X81010960Y-103213056D01*
X80915473Y-103378444D01*
X80856458Y-103560072D01*
X80836496Y-103750000D01*
X80837186Y-103756565D01*
X80851035Y-103888327D01*
X80856458Y-103939928D01*
X80915473Y-104121556D01*
X80918776Y-104127278D01*
X80918777Y-104127279D01*
X80930567Y-104147699D01*
X81010960Y-104286944D01*
X81015380Y-104291852D01*
X81019259Y-104297192D01*
X81017920Y-104298165D01*
X81045050Y-104354696D01*
X81036287Y-104425149D01*
X81018750Y-104452438D01*
X81019259Y-104452808D01*
X81015380Y-104458148D01*
X81010960Y-104463056D01*
X80915473Y-104628444D01*
X80856458Y-104810072D01*
X80855768Y-104816633D01*
X80855768Y-104816635D01*
X80849947Y-104872020D01*
X80836496Y-105000000D01*
X80837186Y-105006565D01*
X80848663Y-105115759D01*
X80856458Y-105189928D01*
X80915473Y-105371556D01*
X81010960Y-105536944D01*
X81138747Y-105678866D01*
X81293248Y-105791118D01*
X81299276Y-105793802D01*
X81299278Y-105793803D01*
X81392714Y-105835403D01*
X81467712Y-105868794D01*
X81561112Y-105888647D01*
X81648056Y-105907128D01*
X81648061Y-105907128D01*
X81654513Y-105908500D01*
X81845487Y-105908500D01*
X81851939Y-105907128D01*
X81851944Y-105907128D01*
X81938888Y-105888647D01*
X82032288Y-105868794D01*
X82107286Y-105835403D01*
X82200722Y-105793803D01*
X82200724Y-105793802D01*
X82206752Y-105791118D01*
X82361253Y-105678866D01*
X82489040Y-105536944D01*
X82584527Y-105371556D01*
X82643542Y-105189928D01*
X82660907Y-105024706D01*
X82687920Y-104959050D01*
X82697122Y-104948782D01*
X83170521Y-104475383D01*
X91787388Y-104475383D01*
X91803245Y-104793914D01*
X91804076Y-104801443D01*
X91858085Y-105115759D01*
X91859818Y-105123146D01*
X91951196Y-105428695D01*
X91953799Y-105435808D01*
X92081227Y-105728173D01*
X92084669Y-105734929D01*
X92246296Y-106009865D01*
X92250519Y-106016150D01*
X92401463Y-106213934D01*
X92412989Y-106222396D01*
X92425054Y-106215735D01*
X94127980Y-104512810D01*
X94135592Y-104498869D01*
X94135461Y-104497034D01*
X94131210Y-104490420D01*
X92426445Y-102785656D01*
X92413510Y-102778592D01*
X92402949Y-102786252D01*
X92282766Y-102937072D01*
X92278410Y-102943270D01*
X92111059Y-103214764D01*
X92107479Y-103221440D01*
X91973956Y-103511074D01*
X91971206Y-103518125D01*
X91873444Y-103821708D01*
X91871561Y-103829041D01*
X91810979Y-104142170D01*
X91809992Y-104149670D01*
X91787467Y-104467802D01*
X91787388Y-104475383D01*
X83170521Y-104475383D01*
X86392247Y-101253657D01*
X86400537Y-101246113D01*
X86407018Y-101242000D01*
X86453659Y-101192332D01*
X86456413Y-101189491D01*
X86476135Y-101169769D01*
X86478612Y-101166576D01*
X86486317Y-101157555D01*
X86511159Y-101131100D01*
X86516586Y-101125321D01*
X86520407Y-101118371D01*
X86526346Y-101107568D01*
X86537202Y-101091041D01*
X86544757Y-101081302D01*
X86544758Y-101081300D01*
X86549614Y-101075040D01*
X86567174Y-101034460D01*
X86572391Y-101023812D01*
X86589875Y-100992009D01*
X86589876Y-100992007D01*
X86593695Y-100985060D01*
X86598733Y-100965437D01*
X86605137Y-100946734D01*
X86610033Y-100935420D01*
X86610033Y-100935419D01*
X86613181Y-100928145D01*
X86614420Y-100920322D01*
X86614423Y-100920312D01*
X86620099Y-100884476D01*
X86622505Y-100872856D01*
X86631528Y-100837711D01*
X86631528Y-100837710D01*
X86633500Y-100830030D01*
X86633500Y-100809776D01*
X86635051Y-100790065D01*
X86636980Y-100777886D01*
X86638220Y-100770057D01*
X86634059Y-100726038D01*
X86633500Y-100714181D01*
X86633500Y-87303126D01*
X94892071Y-87303126D01*
X94896475Y-87318124D01*
X94897865Y-87319329D01*
X94905548Y-87321000D01*
X95827885Y-87321000D01*
X95843124Y-87316525D01*
X95844329Y-87315135D01*
X95846000Y-87307452D01*
X95846000Y-86635115D01*
X95841525Y-86619876D01*
X95840135Y-86618671D01*
X95832452Y-86617000D01*
X95579562Y-86617000D01*
X95573047Y-86617337D01*
X95480943Y-86626894D01*
X95467544Y-86629788D01*
X95318893Y-86679381D01*
X95305714Y-86685555D01*
X95172827Y-86767788D01*
X95161426Y-86776824D01*
X95051014Y-86887429D01*
X95042002Y-86898840D01*
X94959996Y-87031880D01*
X94953849Y-87045061D01*
X94904509Y-87193814D01*
X94901642Y-87207190D01*
X94892328Y-87298097D01*
X94892071Y-87303126D01*
X86633500Y-87303126D01*
X86633500Y-84223709D01*
X86653502Y-84155588D01*
X86707158Y-84109095D01*
X86733303Y-84100462D01*
X86754292Y-84096001D01*
X86882288Y-84068794D01*
X86888319Y-84066109D01*
X87050722Y-83993803D01*
X87050724Y-83993802D01*
X87056752Y-83991118D01*
X87211253Y-83878866D01*
X87259222Y-83825591D01*
X87334621Y-83741852D01*
X87334625Y-83741847D01*
X87339040Y-83736944D01*
X87434527Y-83571556D01*
X87493542Y-83389928D01*
X87494856Y-83377432D01*
X87512814Y-83206565D01*
X87513504Y-83200000D01*
X87511116Y-83177279D01*
X87497494Y-83047670D01*
X87510266Y-82977832D01*
X87558768Y-82925985D01*
X87622804Y-82908500D01*
X87971497Y-82908500D01*
X88039618Y-82928502D01*
X88060592Y-82945405D01*
X89425019Y-84309832D01*
X89437860Y-84324865D01*
X89446134Y-84336253D01*
X89451043Y-84340673D01*
X89496959Y-84382016D01*
X89501744Y-84386557D01*
X89516259Y-84401072D01*
X89532220Y-84413997D01*
X89537221Y-84418269D01*
X89583145Y-84459619D01*
X89583150Y-84459623D01*
X89588056Y-84464040D01*
X89600237Y-84471073D01*
X89616526Y-84482267D01*
X89627469Y-84491129D01*
X89633349Y-84494125D01*
X89633352Y-84494127D01*
X89688426Y-84522188D01*
X89694220Y-84525335D01*
X89753444Y-84559527D01*
X89759726Y-84561568D01*
X89759728Y-84561569D01*
X89766826Y-84563875D01*
X89785092Y-84571440D01*
X89797630Y-84577829D01*
X89804006Y-84579538D01*
X89804010Y-84579539D01*
X89863685Y-84595529D01*
X89870010Y-84597402D01*
X89935072Y-84618542D01*
X89941640Y-84619232D01*
X89941644Y-84619233D01*
X89949061Y-84620012D01*
X89968508Y-84623616D01*
X89982096Y-84627257D01*
X89988695Y-84627603D01*
X89988696Y-84627603D01*
X90050385Y-84630836D01*
X90056960Y-84631353D01*
X90071222Y-84632852D01*
X90077390Y-84633500D01*
X90097925Y-84633500D01*
X90104519Y-84633673D01*
X90166217Y-84636907D01*
X90166222Y-84636907D01*
X90172809Y-84637252D01*
X90186707Y-84635051D01*
X90206416Y-84633500D01*
X95510274Y-84633500D01*
X95548367Y-84639396D01*
X95552828Y-84640811D01*
X95558684Y-84643345D01*
X95564934Y-84644651D01*
X95564935Y-84644651D01*
X95744557Y-84682176D01*
X95744562Y-84682177D01*
X95749293Y-84683165D01*
X95755685Y-84683500D01*
X96398663Y-84683500D01*
X96467951Y-84676462D01*
X96537378Y-84669410D01*
X96537379Y-84669410D01*
X96543727Y-84668765D01*
X96637445Y-84639396D01*
X96723451Y-84612444D01*
X96723456Y-84612442D01*
X96729541Y-84610535D01*
X96804913Y-84568755D01*
X96874190Y-84553223D01*
X96940867Y-84577611D01*
X96983774Y-84634175D01*
X96992000Y-84678957D01*
X96992000Y-86541475D01*
X96971998Y-86609596D01*
X96918342Y-86656089D01*
X96848068Y-86666193D01*
X96826332Y-86661068D01*
X96731186Y-86629509D01*
X96717810Y-86626642D01*
X96626903Y-86617328D01*
X96620486Y-86617000D01*
X96372115Y-86617000D01*
X96356876Y-86621475D01*
X96355671Y-86622865D01*
X96354000Y-86630548D01*
X96354000Y-87703000D01*
X96333998Y-87771121D01*
X96280342Y-87817614D01*
X96228000Y-87829000D01*
X94910115Y-87829000D01*
X94894876Y-87833475D01*
X94893671Y-87834865D01*
X94892000Y-87842548D01*
X94892000Y-87845438D01*
X94892337Y-87851953D01*
X94901894Y-87944057D01*
X94904788Y-87957456D01*
X94954381Y-88106107D01*
X94960555Y-88119285D01*
X95017666Y-88211576D01*
X95036504Y-88280028D01*
X95023577Y-88333509D01*
X94946982Y-88489171D01*
X94897898Y-88677607D01*
X94897564Y-88683986D01*
X94890325Y-88822115D01*
X94887707Y-88872064D01*
X94916825Y-89064599D01*
X94919028Y-89070585D01*
X94919029Y-89070591D01*
X94981860Y-89241360D01*
X94981862Y-89241365D01*
X94984063Y-89247346D01*
X94987425Y-89252768D01*
X95069187Y-89384636D01*
X95088085Y-89453072D01*
X95066983Y-89520860D01*
X95061661Y-89528259D01*
X95037289Y-89559680D01*
X95030565Y-89570440D01*
X94950268Y-89733625D01*
X94945845Y-89745519D01*
X94930749Y-89803470D01*
X94931183Y-89817564D01*
X94939364Y-89821000D01*
X96228000Y-89821000D01*
X96296121Y-89841002D01*
X96342614Y-89894658D01*
X96354000Y-89947000D01*
X96354000Y-90203000D01*
X96333998Y-90271121D01*
X96280342Y-90317614D01*
X96228000Y-90329000D01*
X94940771Y-90329000D01*
X94927240Y-90332973D01*
X94926363Y-90339075D01*
X94982310Y-90491136D01*
X94987877Y-90502549D01*
X95069233Y-90633763D01*
X95088131Y-90702199D01*
X95067029Y-90769987D01*
X95061713Y-90777377D01*
X95032954Y-90814453D01*
X95030138Y-90820176D01*
X95030136Y-90820179D01*
X95006920Y-90867361D01*
X94946982Y-90989171D01*
X94945373Y-90995349D01*
X94945372Y-90995351D01*
X94903373Y-91156590D01*
X94897898Y-91177607D01*
X94897564Y-91183986D01*
X94888468Y-91357548D01*
X94887707Y-91372064D01*
X94916825Y-91564599D01*
X94919028Y-91570585D01*
X94919029Y-91570591D01*
X94981860Y-91741360D01*
X94981862Y-91741365D01*
X94984063Y-91747346D01*
X95011798Y-91792077D01*
X95069187Y-91884636D01*
X95088085Y-91953072D01*
X95066983Y-92020860D01*
X95061661Y-92028259D01*
X95037289Y-92059680D01*
X95030565Y-92070440D01*
X94950268Y-92233625D01*
X94945845Y-92245519D01*
X94930749Y-92303470D01*
X94931183Y-92317564D01*
X94939364Y-92321000D01*
X96228000Y-92321000D01*
X96296121Y-92341002D01*
X96342614Y-92394658D01*
X96354000Y-92447000D01*
X96354000Y-92703000D01*
X96333998Y-92771121D01*
X96280342Y-92817614D01*
X96228000Y-92829000D01*
X94940771Y-92829000D01*
X94927240Y-92832973D01*
X94926363Y-92839075D01*
X94982310Y-92991136D01*
X94987877Y-93002549D01*
X95069233Y-93133763D01*
X95088131Y-93202199D01*
X95067029Y-93269987D01*
X95061713Y-93277377D01*
X95032954Y-93314453D01*
X95030138Y-93320176D01*
X95030136Y-93320179D01*
X94984698Y-93412522D01*
X94946982Y-93489171D01*
X94945373Y-93495349D01*
X94945372Y-93495351D01*
X94910299Y-93630000D01*
X94897898Y-93677607D01*
X94893496Y-93761597D01*
X94890186Y-93824767D01*
X94887707Y-93872064D01*
X94893889Y-93912939D01*
X94913472Y-94042425D01*
X94916825Y-94064599D01*
X94919028Y-94070585D01*
X94919029Y-94070591D01*
X94981860Y-94241360D01*
X94981862Y-94241365D01*
X94984063Y-94247346D01*
X95039044Y-94336020D01*
X95069187Y-94384636D01*
X95088085Y-94453072D01*
X95066983Y-94520860D01*
X95061661Y-94528259D01*
X95037289Y-94559680D01*
X95030565Y-94570440D01*
X94950268Y-94733625D01*
X94945845Y-94745519D01*
X94930749Y-94803470D01*
X94931183Y-94817564D01*
X94939364Y-94821000D01*
X96228000Y-94821000D01*
X96296121Y-94841002D01*
X96342614Y-94894658D01*
X96354000Y-94947000D01*
X96354000Y-95203000D01*
X96333998Y-95271121D01*
X96280342Y-95317614D01*
X96228000Y-95329000D01*
X94940771Y-95329000D01*
X94927240Y-95332973D01*
X94926363Y-95339075D01*
X94982310Y-95491136D01*
X94987877Y-95502549D01*
X95069233Y-95633763D01*
X95088131Y-95702199D01*
X95067029Y-95769987D01*
X95061713Y-95777377D01*
X95032954Y-95814453D01*
X95030138Y-95820176D01*
X95030136Y-95820179D01*
X94949800Y-95983444D01*
X94946982Y-95989171D01*
X94945373Y-95995349D01*
X94945372Y-95995351D01*
X94907212Y-96141851D01*
X94897898Y-96177607D01*
X94887707Y-96372064D01*
X94916825Y-96564599D01*
X94919028Y-96570585D01*
X94919029Y-96570591D01*
X94981860Y-96741360D01*
X94981862Y-96741365D01*
X94984063Y-96747346D01*
X95058524Y-96867438D01*
X95069187Y-96884636D01*
X95088085Y-96953072D01*
X95066983Y-97020860D01*
X95061661Y-97028259D01*
X95037289Y-97059680D01*
X95030565Y-97070440D01*
X94950268Y-97233625D01*
X94945845Y-97245519D01*
X94930749Y-97303470D01*
X94931183Y-97317564D01*
X94939364Y-97321000D01*
X96228000Y-97321000D01*
X96296121Y-97341002D01*
X96342614Y-97394658D01*
X96354000Y-97447000D01*
X96354000Y-97703000D01*
X96333998Y-97771121D01*
X96280342Y-97817614D01*
X96228000Y-97829000D01*
X94940771Y-97829000D01*
X94927240Y-97832973D01*
X94926363Y-97839075D01*
X94982310Y-97991136D01*
X94987877Y-98002549D01*
X95069233Y-98133763D01*
X95088131Y-98202199D01*
X95067029Y-98269987D01*
X95061713Y-98277377D01*
X95032954Y-98314453D01*
X94946982Y-98489171D01*
X94945373Y-98495349D01*
X94945372Y-98495351D01*
X94904583Y-98651944D01*
X94897898Y-98677607D01*
X94894686Y-98738894D01*
X94890268Y-98823204D01*
X94887707Y-98872064D01*
X94916825Y-99064599D01*
X94919028Y-99070585D01*
X94919029Y-99070591D01*
X94981860Y-99241360D01*
X94981862Y-99241365D01*
X94984063Y-99247346D01*
X94987425Y-99252768D01*
X95069187Y-99384636D01*
X95088085Y-99453072D01*
X95066983Y-99520860D01*
X95061661Y-99528259D01*
X95037289Y-99559680D01*
X95030565Y-99570440D01*
X94950268Y-99733625D01*
X94945845Y-99745519D01*
X94930749Y-99803470D01*
X94931183Y-99817564D01*
X94939364Y-99821000D01*
X96228000Y-99821000D01*
X96296121Y-99841002D01*
X96342614Y-99894658D01*
X96354000Y-99947000D01*
X96354000Y-100203000D01*
X96333998Y-100271121D01*
X96280342Y-100317614D01*
X96228000Y-100329000D01*
X94940771Y-100329000D01*
X94927240Y-100332973D01*
X94926363Y-100339075D01*
X94982310Y-100491136D01*
X94987877Y-100502549D01*
X95069233Y-100633763D01*
X95088131Y-100702199D01*
X95067029Y-100769987D01*
X95061713Y-100777377D01*
X95032954Y-100814453D01*
X95030138Y-100820176D01*
X95030136Y-100820179D01*
X94965368Y-100951806D01*
X94946982Y-100989171D01*
X94945373Y-100995349D01*
X94945372Y-100995351D01*
X94899940Y-101169769D01*
X94897898Y-101177607D01*
X94894826Y-101236223D01*
X94888440Y-101358080D01*
X94887707Y-101372064D01*
X94900563Y-101457069D01*
X94914979Y-101552390D01*
X94916825Y-101564599D01*
X94919028Y-101570588D01*
X94919029Y-101570590D01*
X94943725Y-101637710D01*
X94948475Y-101708547D01*
X94914174Y-101770708D01*
X94851712Y-101804456D01*
X94817234Y-101806948D01*
X94517989Y-101787335D01*
X94510424Y-101787295D01*
X94191964Y-101804821D01*
X94184450Y-101805690D01*
X93870405Y-101861348D01*
X93863044Y-101863115D01*
X93557980Y-101956092D01*
X93550860Y-101958740D01*
X93259182Y-102087690D01*
X93252445Y-102091167D01*
X92978355Y-102254233D01*
X92972091Y-102258490D01*
X92786385Y-102401762D01*
X92777917Y-102413423D01*
X92784520Y-102425309D01*
X94487190Y-104127980D01*
X94501131Y-104135592D01*
X94502966Y-104135461D01*
X94509580Y-104131210D01*
X96214559Y-102426230D01*
X96225154Y-102406828D01*
X96237708Y-102349115D01*
X96287910Y-102298913D01*
X96348296Y-102283500D01*
X96398663Y-102283500D01*
X96467951Y-102276462D01*
X96537378Y-102269410D01*
X96537379Y-102269410D01*
X96543727Y-102268765D01*
X96639120Y-102238871D01*
X96723451Y-102212444D01*
X96723456Y-102212442D01*
X96729541Y-102210535D01*
X96804913Y-102168755D01*
X96874190Y-102153223D01*
X96940867Y-102177611D01*
X96983774Y-102234175D01*
X96992000Y-102278957D01*
X96992000Y-102935321D01*
X96971998Y-103003442D01*
X96918342Y-103049935D01*
X96848068Y-103060039D01*
X96783488Y-103030545D01*
X96758054Y-103000310D01*
X96737772Y-102966621D01*
X96733481Y-102960377D01*
X96597991Y-102786647D01*
X96586199Y-102778178D01*
X96574486Y-102784725D01*
X94872020Y-104487190D01*
X94864408Y-104501131D01*
X94864539Y-104502966D01*
X94868790Y-104509580D01*
X96573285Y-106214074D01*
X96586408Y-106221240D01*
X96596709Y-106213851D01*
X96700751Y-106086055D01*
X96705164Y-106079914D01*
X96759438Y-105993894D01*
X96812705Y-105946955D01*
X96882892Y-105936266D01*
X96947716Y-105965220D01*
X96986596Y-106024625D01*
X96992000Y-106061129D01*
X96992000Y-106866000D01*
X96971998Y-106934121D01*
X96918342Y-106980614D01*
X96866000Y-106992000D01*
X96068565Y-106992000D01*
X96000444Y-106971998D01*
X95953951Y-106918342D01*
X95943847Y-106848068D01*
X95973341Y-106783488D01*
X95998840Y-106761050D01*
X96004352Y-106757388D01*
X96214305Y-106598889D01*
X96222761Y-106587496D01*
X96216045Y-106575256D01*
X94512810Y-104872020D01*
X94498869Y-104864408D01*
X94497034Y-104864539D01*
X94490420Y-104868790D01*
X92785818Y-106573393D01*
X92778703Y-106586423D01*
X92786227Y-106596854D01*
X92925483Y-106709020D01*
X92931664Y-106713413D01*
X93004902Y-106759088D01*
X93052119Y-106812107D01*
X93063175Y-106882238D01*
X93034561Y-106947213D01*
X92975361Y-106986403D01*
X92938226Y-106992000D01*
X75446285Y-106992000D01*
X75378164Y-106971998D01*
X75331671Y-106918342D01*
X75321567Y-106848068D01*
X75351061Y-106783488D01*
X75364957Y-106769762D01*
X75365653Y-106769174D01*
X75369860Y-106766173D01*
X75528096Y-106608489D01*
X75658453Y-106427077D01*
X75757430Y-106226811D01*
X75822370Y-106013069D01*
X75851529Y-105791590D01*
X75851636Y-105787237D01*
X75852635Y-105746328D01*
X75874295Y-105678716D01*
X75889502Y-105660311D01*
X79004408Y-102545405D01*
X79066720Y-102511379D01*
X79093503Y-102508500D01*
X81095487Y-102508500D01*
X81135864Y-102499918D01*
X81148872Y-102497857D01*
X81169310Y-102495709D01*
X81183365Y-102494232D01*
X81183367Y-102494232D01*
X81189928Y-102493542D01*
X81196202Y-102491503D01*
X81196209Y-102491502D01*
X81229183Y-102480788D01*
X81241920Y-102477375D01*
X81275831Y-102470167D01*
X81275835Y-102470166D01*
X81282288Y-102468794D01*
X81320006Y-102452001D01*
X81332304Y-102447281D01*
X81365272Y-102436569D01*
X81365273Y-102436568D01*
X81371556Y-102434527D01*
X81407292Y-102413895D01*
X81419041Y-102407908D01*
X81450724Y-102393802D01*
X81450725Y-102393801D01*
X81456752Y-102391118D01*
X81462091Y-102387239D01*
X81462096Y-102387236D01*
X81490149Y-102366854D01*
X81501202Y-102359675D01*
X81536944Y-102339040D01*
X81541853Y-102334620D01*
X81541857Y-102334617D01*
X81567614Y-102311425D01*
X81577857Y-102303129D01*
X81611253Y-102278866D01*
X81618977Y-102270288D01*
X81638871Y-102248194D01*
X81648194Y-102238871D01*
X81673962Y-102215669D01*
X81673964Y-102215667D01*
X81678866Y-102211253D01*
X81703129Y-102177857D01*
X81711425Y-102167614D01*
X81734617Y-102141857D01*
X81734620Y-102141853D01*
X81739040Y-102136944D01*
X81759675Y-102101202D01*
X81766854Y-102090149D01*
X81787236Y-102062096D01*
X81787239Y-102062091D01*
X81791118Y-102056752D01*
X81807909Y-102019039D01*
X81813896Y-102007290D01*
X81831224Y-101977277D01*
X81834527Y-101971556D01*
X81847282Y-101932302D01*
X81852001Y-101920006D01*
X81868794Y-101882288D01*
X81871421Y-101869932D01*
X81877375Y-101841920D01*
X81880788Y-101829183D01*
X81891502Y-101796209D01*
X81891503Y-101796202D01*
X81893542Y-101789928D01*
X81897857Y-101748872D01*
X81899918Y-101735864D01*
X81908500Y-101695487D01*
X81908500Y-101654216D01*
X81909190Y-101641045D01*
X81912814Y-101606565D01*
X81913504Y-101600000D01*
X81909190Y-101558955D01*
X81908500Y-101545784D01*
X81908500Y-101504513D01*
X81899918Y-101464136D01*
X81897856Y-101451122D01*
X81897629Y-101448955D01*
X81894887Y-101422865D01*
X81894232Y-101416635D01*
X81894232Y-101416633D01*
X81893542Y-101410072D01*
X81891503Y-101403798D01*
X81891502Y-101403791D01*
X81880788Y-101370817D01*
X81877375Y-101358080D01*
X81870167Y-101324169D01*
X81870166Y-101324165D01*
X81868794Y-101317712D01*
X81852001Y-101279994D01*
X81847281Y-101267696D01*
X81836569Y-101234728D01*
X81836568Y-101234727D01*
X81834527Y-101228444D01*
X81813895Y-101192708D01*
X81807908Y-101180959D01*
X81793802Y-101149276D01*
X81793801Y-101149275D01*
X81791118Y-101143248D01*
X81787239Y-101137909D01*
X81787236Y-101137904D01*
X81766854Y-101109851D01*
X81759675Y-101098798D01*
X81739040Y-101063056D01*
X81734620Y-101058147D01*
X81734617Y-101058143D01*
X81711425Y-101032386D01*
X81703129Y-101022143D01*
X81678866Y-100988747D01*
X81673962Y-100984331D01*
X81648194Y-100961129D01*
X81638871Y-100951806D01*
X81615669Y-100926038D01*
X81615667Y-100926036D01*
X81611253Y-100921134D01*
X81577857Y-100896871D01*
X81567614Y-100888575D01*
X81541857Y-100865383D01*
X81541853Y-100865380D01*
X81536944Y-100860960D01*
X81501202Y-100840325D01*
X81490149Y-100833146D01*
X81462096Y-100812764D01*
X81462091Y-100812761D01*
X81456752Y-100808882D01*
X81443126Y-100802815D01*
X81419041Y-100792092D01*
X81407290Y-100786104D01*
X81377277Y-100768776D01*
X81371556Y-100765473D01*
X81361376Y-100762165D01*
X81332304Y-100752719D01*
X81320006Y-100747999D01*
X81282288Y-100731206D01*
X81275835Y-100729834D01*
X81275831Y-100729833D01*
X81241920Y-100722625D01*
X81229183Y-100719212D01*
X81196209Y-100708498D01*
X81196202Y-100708497D01*
X81189928Y-100706458D01*
X81183367Y-100705768D01*
X81183365Y-100705768D01*
X81166074Y-100703951D01*
X81148872Y-100702143D01*
X81135864Y-100700082D01*
X81095487Y-100691500D01*
X78746417Y-100691500D01*
X78726708Y-100689949D01*
X78712810Y-100687748D01*
X78706223Y-100688093D01*
X78706218Y-100688093D01*
X78644519Y-100691327D01*
X78637925Y-100691500D01*
X78617390Y-100691500D01*
X78611222Y-100692148D01*
X78596960Y-100693647D01*
X78590385Y-100694164D01*
X78528696Y-100697397D01*
X78528695Y-100697397D01*
X78522096Y-100697743D01*
X78508508Y-100701384D01*
X78489061Y-100704988D01*
X78481644Y-100705767D01*
X78481640Y-100705768D01*
X78475072Y-100706458D01*
X78451303Y-100714181D01*
X78410009Y-100727598D01*
X78403685Y-100729471D01*
X78344010Y-100745461D01*
X78344006Y-100745462D01*
X78337630Y-100747171D01*
X78326742Y-100752719D01*
X78325093Y-100753559D01*
X78306826Y-100761125D01*
X78299728Y-100763431D01*
X78299726Y-100763432D01*
X78293444Y-100765473D01*
X78287722Y-100768776D01*
X78287721Y-100768777D01*
X78234218Y-100799667D01*
X78228423Y-100802814D01*
X78167470Y-100833871D01*
X78162342Y-100838024D01*
X78162340Y-100838025D01*
X78156534Y-100842727D01*
X78140237Y-100853927D01*
X78133776Y-100857657D01*
X78133772Y-100857660D01*
X78128056Y-100860960D01*
X78123150Y-100865377D01*
X78123145Y-100865381D01*
X78077231Y-100906722D01*
X78072216Y-100911006D01*
X78064497Y-100917257D01*
X78056259Y-100923928D01*
X78041744Y-100938443D01*
X78036959Y-100942984D01*
X77986134Y-100988747D01*
X77982255Y-100994086D01*
X77982254Y-100994087D01*
X77977860Y-101000135D01*
X77965019Y-101015168D01*
X76067091Y-102913096D01*
X76004779Y-102947122D01*
X75933964Y-102942057D01*
X75877128Y-102899510D01*
X75852317Y-102832990D01*
X75852034Y-102820923D01*
X75853074Y-102778365D01*
X75853074Y-102778361D01*
X75853156Y-102775000D01*
X75834852Y-102552361D01*
X75780431Y-102335702D01*
X75691354Y-102130840D01*
X75651906Y-102069862D01*
X75572822Y-101947617D01*
X75572820Y-101947614D01*
X75570014Y-101943277D01*
X75419670Y-101778051D01*
X75415619Y-101774852D01*
X75415615Y-101774848D01*
X75248414Y-101642800D01*
X75248410Y-101642798D01*
X75244359Y-101639598D01*
X75048789Y-101531638D01*
X75043920Y-101529914D01*
X75043916Y-101529912D01*
X74843087Y-101458795D01*
X74843083Y-101458794D01*
X74838212Y-101457069D01*
X74833119Y-101456162D01*
X74833116Y-101456161D01*
X74623373Y-101418800D01*
X74623367Y-101418799D01*
X74618284Y-101417894D01*
X74544452Y-101416992D01*
X74400081Y-101415228D01*
X74400079Y-101415228D01*
X74394911Y-101415165D01*
X74174091Y-101448955D01*
X73961756Y-101518357D01*
X73763607Y-101621507D01*
X73759474Y-101624610D01*
X73759471Y-101624612D01*
X73593964Y-101748878D01*
X73584965Y-101755635D01*
X73581393Y-101759373D01*
X73503898Y-101840466D01*
X73442374Y-101875895D01*
X73371462Y-101872438D01*
X73313676Y-101831192D01*
X73294823Y-101797644D01*
X73253324Y-101686946D01*
X73244786Y-101671351D01*
X73168285Y-101569276D01*
X73155724Y-101556715D01*
X73053649Y-101480214D01*
X73038054Y-101471676D01*
X72917606Y-101426522D01*
X72902351Y-101422895D01*
X72851486Y-101417369D01*
X72844672Y-101417000D01*
X72222115Y-101417000D01*
X72206876Y-101421475D01*
X72205671Y-101422865D01*
X72204000Y-101430548D01*
X72204000Y-102903000D01*
X72183998Y-102971121D01*
X72130342Y-103017614D01*
X72078000Y-103029000D01*
X70610116Y-103029000D01*
X70594877Y-103033475D01*
X70593672Y-103034865D01*
X70592001Y-103042548D01*
X70592001Y-103101422D01*
X70571999Y-103169543D01*
X70518343Y-103216036D01*
X70448069Y-103226140D01*
X70383489Y-103196646D01*
X70358055Y-103166411D01*
X70237771Y-102966621D01*
X70233481Y-102960377D01*
X70097991Y-102786647D01*
X70086199Y-102778178D01*
X70074486Y-102784725D01*
X68372020Y-104487190D01*
X68364408Y-104501131D01*
X68364539Y-104502966D01*
X68368790Y-104509580D01*
X70073285Y-106214074D01*
X70086408Y-106221240D01*
X70096709Y-106213851D01*
X70200751Y-106086055D01*
X70205164Y-106079914D01*
X70359438Y-105835403D01*
X70412705Y-105788464D01*
X70482892Y-105777775D01*
X70547716Y-105806729D01*
X70586596Y-105866134D01*
X70592000Y-105902638D01*
X70592001Y-106619669D01*
X70592371Y-106626490D01*
X70597895Y-106677352D01*
X70601521Y-106692604D01*
X70649828Y-106821462D01*
X70646301Y-106822784D01*
X70657712Y-106874731D01*
X70633038Y-106941302D01*
X70576289Y-106983965D01*
X70532015Y-106992000D01*
X69568565Y-106992000D01*
X69500444Y-106971998D01*
X69453951Y-106918342D01*
X69443847Y-106848068D01*
X69473341Y-106783488D01*
X69498840Y-106761050D01*
X69504352Y-106757388D01*
X69714305Y-106598889D01*
X69722761Y-106587496D01*
X69716045Y-106575256D01*
X68012810Y-104872020D01*
X67998869Y-104864408D01*
X67997034Y-104864539D01*
X67990420Y-104868790D01*
X66285818Y-106573393D01*
X66278703Y-106586423D01*
X66286227Y-106596854D01*
X66425483Y-106709020D01*
X66431664Y-106713413D01*
X66504902Y-106759088D01*
X66552119Y-106812107D01*
X66563175Y-106882238D01*
X66534561Y-106947213D01*
X66475361Y-106986403D01*
X66438226Y-106992000D01*
X65634000Y-106992000D01*
X65565879Y-106971998D01*
X65519386Y-106918342D01*
X65508000Y-106866000D01*
X65508000Y-106067469D01*
X65528002Y-105999348D01*
X65581658Y-105952855D01*
X65651932Y-105942751D01*
X65716512Y-105972245D01*
X65742622Y-106003615D01*
X65746299Y-106009870D01*
X65750519Y-106016150D01*
X65901463Y-106213934D01*
X65912989Y-106222396D01*
X65925054Y-106215735D01*
X67627980Y-104512810D01*
X67635592Y-104498869D01*
X67635461Y-104497034D01*
X67631210Y-104490420D01*
X65926445Y-102785656D01*
X65913510Y-102778592D01*
X65902949Y-102786252D01*
X65782766Y-102937072D01*
X65778410Y-102943270D01*
X65741260Y-103003538D01*
X65688487Y-103051032D01*
X65618416Y-103062455D01*
X65553292Y-103034181D01*
X65513793Y-102975187D01*
X65508000Y-102937422D01*
X65508000Y-102413423D01*
X66277917Y-102413423D01*
X66284520Y-102425309D01*
X67987190Y-104127980D01*
X68001131Y-104135592D01*
X68002966Y-104135461D01*
X68009580Y-104131210D01*
X69637904Y-102502885D01*
X70592000Y-102502885D01*
X70596475Y-102518124D01*
X70597865Y-102519329D01*
X70605548Y-102521000D01*
X71677885Y-102521000D01*
X71693124Y-102516525D01*
X71694329Y-102515135D01*
X71696000Y-102507452D01*
X71696000Y-101435116D01*
X71691525Y-101419877D01*
X71690135Y-101418672D01*
X71682452Y-101417001D01*
X71055331Y-101417001D01*
X71048510Y-101417371D01*
X70997648Y-101422895D01*
X70982396Y-101426521D01*
X70861946Y-101471676D01*
X70846351Y-101480214D01*
X70744276Y-101556715D01*
X70731715Y-101569276D01*
X70655214Y-101671351D01*
X70646676Y-101686946D01*
X70601522Y-101807394D01*
X70597895Y-101822649D01*
X70592369Y-101873514D01*
X70592000Y-101880328D01*
X70592000Y-102502885D01*
X69637904Y-102502885D01*
X69714559Y-102426230D01*
X69721571Y-102413389D01*
X69713777Y-102402701D01*
X69551298Y-102274613D01*
X69545075Y-102270288D01*
X69272702Y-102104357D01*
X69266025Y-102100822D01*
X68975686Y-101968813D01*
X68968616Y-101966099D01*
X68664537Y-101869932D01*
X68657186Y-101868085D01*
X68343746Y-101809142D01*
X68336237Y-101808194D01*
X68017989Y-101787335D01*
X68010424Y-101787295D01*
X67691964Y-101804821D01*
X67684450Y-101805690D01*
X67370405Y-101861348D01*
X67363044Y-101863115D01*
X67057980Y-101956092D01*
X67050860Y-101958740D01*
X66759182Y-102087690D01*
X66752445Y-102091167D01*
X66478355Y-102254233D01*
X66472091Y-102258490D01*
X66286385Y-102401762D01*
X66277917Y-102413423D01*
X65508000Y-102413423D01*
X65508000Y-99899148D01*
X65528002Y-99831027D01*
X65581658Y-99784534D01*
X65651932Y-99774430D01*
X65714484Y-99802203D01*
X65739434Y-99822917D01*
X65747881Y-99828831D01*
X65931756Y-99936279D01*
X65941042Y-99940729D01*
X66140001Y-100016703D01*
X66149899Y-100019579D01*
X66253250Y-100040606D01*
X66267299Y-100039410D01*
X66271000Y-100029065D01*
X66271000Y-100028517D01*
X66779000Y-100028517D01*
X66783064Y-100042359D01*
X66796478Y-100044393D01*
X66803184Y-100043534D01*
X66813262Y-100041392D01*
X67017255Y-99980191D01*
X67026842Y-99976433D01*
X67218095Y-99882739D01*
X67226945Y-99877464D01*
X67400328Y-99753792D01*
X67408200Y-99747139D01*
X67559052Y-99596812D01*
X67565730Y-99588965D01*
X67690003Y-99416020D01*
X67695313Y-99407183D01*
X67789670Y-99216267D01*
X67793469Y-99206672D01*
X67855377Y-99002910D01*
X67857555Y-98992837D01*
X67858986Y-98981962D01*
X67856775Y-98967778D01*
X67843617Y-98964000D01*
X66797115Y-98964000D01*
X66781876Y-98968475D01*
X66780671Y-98969865D01*
X66779000Y-98977548D01*
X66779000Y-100028517D01*
X66271000Y-100028517D01*
X66271000Y-98676695D01*
X68412251Y-98676695D01*
X68412548Y-98681848D01*
X68412548Y-98681851D01*
X68418011Y-98776590D01*
X68425110Y-98899715D01*
X68426247Y-98904761D01*
X68426248Y-98904767D01*
X68439597Y-98964000D01*
X68474222Y-99117639D01*
X68558266Y-99324616D01*
X68674987Y-99515088D01*
X68821250Y-99683938D01*
X68923425Y-99768765D01*
X68982204Y-99817564D01*
X68993126Y-99826632D01*
X69186000Y-99939338D01*
X69190825Y-99941180D01*
X69190826Y-99941181D01*
X69263612Y-99968975D01*
X69394692Y-100019030D01*
X69399760Y-100020061D01*
X69399763Y-100020062D01*
X69494862Y-100039410D01*
X69613597Y-100063567D01*
X69618772Y-100063757D01*
X69618774Y-100063757D01*
X69831673Y-100071564D01*
X69831677Y-100071564D01*
X69836837Y-100071753D01*
X69841957Y-100071097D01*
X69841959Y-100071097D01*
X70053288Y-100044025D01*
X70053289Y-100044025D01*
X70058416Y-100043368D01*
X70063366Y-100041883D01*
X70267429Y-99980661D01*
X70267434Y-99980659D01*
X70272384Y-99979174D01*
X70472994Y-99880896D01*
X70654860Y-99751173D01*
X70662716Y-99743345D01*
X70809435Y-99597137D01*
X70813096Y-99593489D01*
X70826434Y-99574928D01*
X70940435Y-99416277D01*
X70943453Y-99412077D01*
X70964707Y-99369074D01*
X71040136Y-99216453D01*
X71040137Y-99216451D01*
X71042430Y-99211811D01*
X71102699Y-99013444D01*
X71105865Y-99003023D01*
X71105865Y-99003021D01*
X71107370Y-98998069D01*
X71136529Y-98776590D01*
X71138156Y-98710000D01*
X71119852Y-98487361D01*
X71065431Y-98270702D01*
X70976354Y-98065840D01*
X70855014Y-97878277D01*
X70704670Y-97713051D01*
X70700619Y-97709852D01*
X70700615Y-97709848D01*
X70533414Y-97577800D01*
X70533410Y-97577798D01*
X70529359Y-97574598D01*
X70488053Y-97551796D01*
X70438084Y-97501364D01*
X70423312Y-97431921D01*
X70448428Y-97365516D01*
X70475780Y-97338909D01*
X70542908Y-97291027D01*
X70654860Y-97211173D01*
X70659550Y-97206500D01*
X70750236Y-97116130D01*
X70813096Y-97053489D01*
X70831226Y-97028259D01*
X70940435Y-96876277D01*
X70943453Y-96872077D01*
X71042430Y-96671811D01*
X71107370Y-96458069D01*
X71136529Y-96236590D01*
X71138156Y-96170000D01*
X71119852Y-95947361D01*
X71065431Y-95730702D01*
X70976354Y-95525840D01*
X70936906Y-95464862D01*
X70857822Y-95342617D01*
X70857820Y-95342614D01*
X70855014Y-95338277D01*
X70704670Y-95173051D01*
X70700619Y-95169852D01*
X70700615Y-95169848D01*
X70533414Y-95037800D01*
X70533410Y-95037798D01*
X70529359Y-95034598D01*
X70488053Y-95011796D01*
X70438084Y-94961364D01*
X70423312Y-94891921D01*
X70448428Y-94825516D01*
X70475780Y-94798909D01*
X70542908Y-94751027D01*
X70654860Y-94671173D01*
X70813096Y-94513489D01*
X70872594Y-94430689D01*
X70940435Y-94336277D01*
X70943453Y-94332077D01*
X70985330Y-94247346D01*
X71040136Y-94136453D01*
X71040137Y-94136451D01*
X71042430Y-94131811D01*
X71107370Y-93918069D01*
X71136529Y-93696590D01*
X71138156Y-93630000D01*
X71119852Y-93407361D01*
X71065431Y-93190702D01*
X70976354Y-92985840D01*
X70899366Y-92866835D01*
X70857822Y-92802617D01*
X70857820Y-92802614D01*
X70855014Y-92798277D01*
X70704670Y-92633051D01*
X70700619Y-92629852D01*
X70700615Y-92629848D01*
X70533414Y-92497800D01*
X70533410Y-92497798D01*
X70529359Y-92494598D01*
X70488053Y-92471796D01*
X70438084Y-92421364D01*
X70423312Y-92351921D01*
X70448428Y-92285516D01*
X70475780Y-92258909D01*
X70543598Y-92210535D01*
X70654860Y-92131173D01*
X70813096Y-91973489D01*
X70856677Y-91912840D01*
X70940435Y-91796277D01*
X70943453Y-91792077D01*
X70956702Y-91765271D01*
X71040136Y-91596453D01*
X71040137Y-91596451D01*
X71042430Y-91591811D01*
X71100707Y-91400000D01*
X71105865Y-91383023D01*
X71105865Y-91383021D01*
X71107370Y-91378069D01*
X71136529Y-91156590D01*
X71138156Y-91090000D01*
X71119852Y-90867361D01*
X71065431Y-90650702D01*
X70976354Y-90445840D01*
X70855014Y-90258277D01*
X70851532Y-90254450D01*
X70707798Y-90096488D01*
X70676746Y-90032642D01*
X70685141Y-89962143D01*
X70730317Y-89907375D01*
X70756761Y-89893706D01*
X70863297Y-89853767D01*
X70871705Y-89850615D01*
X70988261Y-89763261D01*
X71075615Y-89646705D01*
X71126745Y-89510316D01*
X71133500Y-89448134D01*
X71133500Y-87651866D01*
X71126745Y-87589684D01*
X71075615Y-87453295D01*
X70988261Y-87336739D01*
X70871705Y-87249385D01*
X70735316Y-87198255D01*
X70673134Y-87191500D01*
X68876866Y-87191500D01*
X68814684Y-87198255D01*
X68678295Y-87249385D01*
X68561739Y-87336739D01*
X68474385Y-87453295D01*
X68423255Y-87589684D01*
X68416500Y-87651866D01*
X68416500Y-89448134D01*
X68423255Y-89510316D01*
X68474385Y-89646705D01*
X68561739Y-89763261D01*
X68678295Y-89850615D01*
X68686704Y-89853767D01*
X68686705Y-89853768D01*
X68795451Y-89894535D01*
X68852216Y-89937176D01*
X68876916Y-90003738D01*
X68861709Y-90073087D01*
X68842316Y-90099568D01*
X68715629Y-90232138D01*
X68712715Y-90236410D01*
X68712714Y-90236411D01*
X68657321Y-90317614D01*
X68589743Y-90416680D01*
X68495688Y-90619305D01*
X68435989Y-90834570D01*
X68412251Y-91056695D01*
X68412548Y-91061848D01*
X68412548Y-91061851D01*
X68419590Y-91183986D01*
X68425110Y-91279715D01*
X68426247Y-91284761D01*
X68426248Y-91284767D01*
X68440449Y-91347778D01*
X68474222Y-91497639D01*
X68558266Y-91704616D01*
X68595435Y-91765271D01*
X68671509Y-91889412D01*
X68674987Y-91895088D01*
X68821250Y-92063938D01*
X68993126Y-92206632D01*
X69021799Y-92223387D01*
X69066445Y-92249476D01*
X69115169Y-92301114D01*
X69128240Y-92370897D01*
X69101509Y-92436669D01*
X69061055Y-92470027D01*
X69048607Y-92476507D01*
X69044474Y-92479610D01*
X69044471Y-92479612D01*
X68935798Y-92561206D01*
X68869965Y-92610635D01*
X68715629Y-92772138D01*
X68589743Y-92956680D01*
X68553913Y-93033870D01*
X68525223Y-93095678D01*
X68495688Y-93159305D01*
X68435989Y-93374570D01*
X68412251Y-93596695D01*
X68412548Y-93601848D01*
X68412548Y-93601851D01*
X68418011Y-93696590D01*
X68425110Y-93819715D01*
X68426247Y-93824761D01*
X68426248Y-93824767D01*
X68438331Y-93878382D01*
X68474222Y-94037639D01*
X68558266Y-94244616D01*
X68674987Y-94435088D01*
X68821250Y-94603938D01*
X68993126Y-94746632D01*
X69031002Y-94768765D01*
X69066445Y-94789476D01*
X69115169Y-94841114D01*
X69128240Y-94910897D01*
X69101509Y-94976669D01*
X69061055Y-95010027D01*
X69048607Y-95016507D01*
X69044474Y-95019610D01*
X69044471Y-95019612D01*
X68925649Y-95108826D01*
X68869965Y-95150635D01*
X68715629Y-95312138D01*
X68712715Y-95316410D01*
X68712714Y-95316411D01*
X68701416Y-95332973D01*
X68589743Y-95496680D01*
X68574003Y-95530590D01*
X68537671Y-95608861D01*
X68495688Y-95699305D01*
X68435989Y-95914570D01*
X68412251Y-96136695D01*
X68412548Y-96141848D01*
X68412548Y-96141851D01*
X68418011Y-96236590D01*
X68425110Y-96359715D01*
X68426247Y-96364761D01*
X68426248Y-96364767D01*
X68439597Y-96424000D01*
X68474222Y-96577639D01*
X68558266Y-96784616D01*
X68560965Y-96789020D01*
X68661496Y-96953072D01*
X68674987Y-96975088D01*
X68821250Y-97143938D01*
X68993126Y-97286632D01*
X69021941Y-97303470D01*
X69066445Y-97329476D01*
X69115169Y-97381114D01*
X69128240Y-97450897D01*
X69101509Y-97516669D01*
X69061055Y-97550027D01*
X69048607Y-97556507D01*
X69044474Y-97559610D01*
X69044471Y-97559612D01*
X68925649Y-97648826D01*
X68869965Y-97690635D01*
X68818491Y-97744499D01*
X68733944Y-97832973D01*
X68715629Y-97852138D01*
X68589743Y-98036680D01*
X68495688Y-98239305D01*
X68435989Y-98454570D01*
X68412251Y-98676695D01*
X66271000Y-98676695D01*
X66271000Y-98437885D01*
X66779000Y-98437885D01*
X66783475Y-98453124D01*
X66784865Y-98454329D01*
X66792548Y-98456000D01*
X67843344Y-98456000D01*
X67856875Y-98452027D01*
X67858180Y-98442947D01*
X67816214Y-98275875D01*
X67812894Y-98266124D01*
X67727972Y-98070814D01*
X67723105Y-98061739D01*
X67607426Y-97882926D01*
X67601136Y-97874757D01*
X67457806Y-97717240D01*
X67450273Y-97710215D01*
X67283139Y-97578222D01*
X67274552Y-97572517D01*
X67237116Y-97551851D01*
X67187146Y-97501419D01*
X67172374Y-97431976D01*
X67197490Y-97365571D01*
X67224842Y-97338964D01*
X67400327Y-97213792D01*
X67408200Y-97207139D01*
X67559052Y-97056812D01*
X67565730Y-97048965D01*
X67690003Y-96876020D01*
X67695313Y-96867183D01*
X67789670Y-96676267D01*
X67793469Y-96666672D01*
X67855377Y-96462910D01*
X67857555Y-96452837D01*
X67858986Y-96441962D01*
X67856775Y-96427778D01*
X67843617Y-96424000D01*
X66797115Y-96424000D01*
X66781876Y-96428475D01*
X66780671Y-96429865D01*
X66779000Y-96437548D01*
X66779000Y-98437885D01*
X66271000Y-98437885D01*
X66271000Y-95897885D01*
X66779000Y-95897885D01*
X66783475Y-95913124D01*
X66784865Y-95914329D01*
X66792548Y-95916000D01*
X67843344Y-95916000D01*
X67856875Y-95912027D01*
X67858180Y-95902947D01*
X67816214Y-95735875D01*
X67812894Y-95726124D01*
X67727972Y-95530814D01*
X67723105Y-95521739D01*
X67607426Y-95342926D01*
X67601136Y-95334757D01*
X67457806Y-95177240D01*
X67450273Y-95170215D01*
X67283139Y-95038222D01*
X67274552Y-95032517D01*
X67237116Y-95011851D01*
X67187146Y-94961419D01*
X67172374Y-94891976D01*
X67197490Y-94825571D01*
X67224842Y-94798964D01*
X67400327Y-94673792D01*
X67408200Y-94667139D01*
X67559052Y-94516812D01*
X67565730Y-94508965D01*
X67690003Y-94336020D01*
X67695313Y-94327183D01*
X67789670Y-94136267D01*
X67793469Y-94126672D01*
X67855377Y-93922910D01*
X67857555Y-93912837D01*
X67858986Y-93901962D01*
X67856775Y-93887778D01*
X67843617Y-93884000D01*
X66797115Y-93884000D01*
X66781876Y-93888475D01*
X66780671Y-93889865D01*
X66779000Y-93897548D01*
X66779000Y-95897885D01*
X66271000Y-95897885D01*
X66271000Y-93357885D01*
X66779000Y-93357885D01*
X66783475Y-93373124D01*
X66784865Y-93374329D01*
X66792548Y-93376000D01*
X67843344Y-93376000D01*
X67856875Y-93372027D01*
X67858180Y-93362947D01*
X67816214Y-93195875D01*
X67812894Y-93186124D01*
X67727972Y-92990814D01*
X67723105Y-92981739D01*
X67607426Y-92802926D01*
X67601136Y-92794757D01*
X67457806Y-92637240D01*
X67450273Y-92630215D01*
X67283139Y-92498222D01*
X67274552Y-92492517D01*
X67237116Y-92471851D01*
X67187146Y-92421419D01*
X67172374Y-92351976D01*
X67197490Y-92285571D01*
X67224842Y-92258964D01*
X67400327Y-92133792D01*
X67408200Y-92127139D01*
X67559052Y-91976812D01*
X67565730Y-91968965D01*
X67690003Y-91796020D01*
X67695313Y-91787183D01*
X67789670Y-91596267D01*
X67793469Y-91586672D01*
X67855377Y-91382910D01*
X67857555Y-91372837D01*
X67858986Y-91361962D01*
X67856775Y-91347778D01*
X67843617Y-91344000D01*
X66797115Y-91344000D01*
X66781876Y-91348475D01*
X66780671Y-91349865D01*
X66779000Y-91357548D01*
X66779000Y-93357885D01*
X66271000Y-93357885D01*
X66271000Y-90817885D01*
X66779000Y-90817885D01*
X66783475Y-90833124D01*
X66784865Y-90834329D01*
X66792548Y-90836000D01*
X67843344Y-90836000D01*
X67856875Y-90832027D01*
X67858180Y-90822947D01*
X67816214Y-90655875D01*
X67812894Y-90646124D01*
X67727972Y-90450814D01*
X67723105Y-90441739D01*
X67607426Y-90262926D01*
X67601136Y-90254757D01*
X67456931Y-90096279D01*
X67425879Y-90032433D01*
X67434273Y-89961934D01*
X67479450Y-89907166D01*
X67505894Y-89893497D01*
X67613054Y-89853324D01*
X67628649Y-89844786D01*
X67730724Y-89768285D01*
X67743285Y-89755724D01*
X67819786Y-89653649D01*
X67828324Y-89638054D01*
X67873478Y-89517606D01*
X67877105Y-89502351D01*
X67882631Y-89451486D01*
X67883000Y-89444672D01*
X67883000Y-88822115D01*
X67878525Y-88806876D01*
X67877135Y-88805671D01*
X67869452Y-88804000D01*
X66797115Y-88804000D01*
X66781876Y-88808475D01*
X66780671Y-88809865D01*
X66779000Y-88817548D01*
X66779000Y-90817885D01*
X66271000Y-90817885D01*
X66271000Y-88277885D01*
X66779000Y-88277885D01*
X66783475Y-88293124D01*
X66784865Y-88294329D01*
X66792548Y-88296000D01*
X67864884Y-88296000D01*
X67880123Y-88291525D01*
X67881328Y-88290135D01*
X67882999Y-88282452D01*
X67882999Y-87655331D01*
X67882629Y-87648510D01*
X67877105Y-87597648D01*
X67873479Y-87582396D01*
X67828324Y-87461946D01*
X67819786Y-87446351D01*
X67743285Y-87344276D01*
X67730724Y-87331715D01*
X67628649Y-87255214D01*
X67613054Y-87246676D01*
X67492606Y-87201522D01*
X67477351Y-87197895D01*
X67426486Y-87192369D01*
X67419672Y-87192000D01*
X66797115Y-87192000D01*
X66781876Y-87196475D01*
X66780671Y-87197865D01*
X66779000Y-87205548D01*
X66779000Y-88277885D01*
X66271000Y-88277885D01*
X66271000Y-87210116D01*
X66266525Y-87194877D01*
X66265135Y-87193672D01*
X66257452Y-87192001D01*
X65634000Y-87192001D01*
X65565879Y-87171999D01*
X65519386Y-87118343D01*
X65508000Y-87066001D01*
X65508000Y-83896911D01*
X65528002Y-83828790D01*
X65581658Y-83782297D01*
X65651932Y-83772193D01*
X65716512Y-83801687D01*
X65723817Y-83808852D01*
X65723928Y-83808741D01*
X65738443Y-83823256D01*
X65742984Y-83828041D01*
X65788747Y-83878866D01*
X65794086Y-83882745D01*
X65794087Y-83882746D01*
X65800135Y-83887140D01*
X65815168Y-83899981D01*
X67700019Y-85784832D01*
X67712860Y-85799865D01*
X67721134Y-85811253D01*
X67726043Y-85815673D01*
X67771959Y-85857016D01*
X67776744Y-85861557D01*
X67791259Y-85876072D01*
X67793823Y-85878148D01*
X67807216Y-85888994D01*
X67812231Y-85893278D01*
X67858145Y-85934619D01*
X67858150Y-85934623D01*
X67863056Y-85939040D01*
X67868772Y-85942340D01*
X67868776Y-85942343D01*
X67875237Y-85946073D01*
X67891533Y-85957273D01*
X67902470Y-85966129D01*
X67963421Y-85997185D01*
X67969215Y-86000331D01*
X68028444Y-86034527D01*
X68034726Y-86036568D01*
X68034728Y-86036569D01*
X68041826Y-86038875D01*
X68060092Y-86046440D01*
X68072630Y-86052829D01*
X68079006Y-86054538D01*
X68079010Y-86054539D01*
X68138685Y-86070529D01*
X68145010Y-86072402D01*
X68210072Y-86093542D01*
X68216640Y-86094232D01*
X68216644Y-86094233D01*
X68224061Y-86095012D01*
X68243508Y-86098616D01*
X68257096Y-86102257D01*
X68263695Y-86102603D01*
X68263696Y-86102603D01*
X68325385Y-86105836D01*
X68331960Y-86106353D01*
X68346222Y-86107852D01*
X68352390Y-86108500D01*
X68372925Y-86108500D01*
X68379519Y-86108673D01*
X68441218Y-86111907D01*
X68441223Y-86111907D01*
X68447810Y-86112252D01*
X68461708Y-86110051D01*
X68481417Y-86108500D01*
X70118583Y-86108500D01*
X70138292Y-86110051D01*
X70152190Y-86112252D01*
X70158777Y-86111907D01*
X70158782Y-86111907D01*
X70220480Y-86108673D01*
X70227074Y-86108500D01*
X70247610Y-86108500D01*
X70250882Y-86108156D01*
X70250884Y-86108156D01*
X70268042Y-86106353D01*
X70274616Y-86105836D01*
X70336308Y-86102603D01*
X70336312Y-86102602D01*
X70342903Y-86102257D01*
X70349284Y-86100547D01*
X70349286Y-86100547D01*
X70356491Y-86098617D01*
X70375925Y-86095015D01*
X70383354Y-86094234D01*
X70383363Y-86094232D01*
X70389928Y-86093542D01*
X70454997Y-86072400D01*
X70461299Y-86070533D01*
X70502852Y-86059399D01*
X70520996Y-86054537D01*
X70520997Y-86054537D01*
X70527370Y-86052829D01*
X70539908Y-86046440D01*
X70558174Y-86038875D01*
X70565272Y-86036569D01*
X70565274Y-86036568D01*
X70571556Y-86034527D01*
X70630785Y-86000331D01*
X70636579Y-85997185D01*
X70697530Y-85966129D01*
X70708467Y-85957273D01*
X70724763Y-85946073D01*
X70731224Y-85942343D01*
X70731228Y-85942340D01*
X70736944Y-85939040D01*
X70741850Y-85934623D01*
X70741855Y-85934619D01*
X70787769Y-85893278D01*
X70792784Y-85888994D01*
X70806177Y-85878148D01*
X70808741Y-85876072D01*
X70823256Y-85861557D01*
X70828041Y-85857016D01*
X70873957Y-85815673D01*
X70878866Y-85811253D01*
X70887140Y-85799865D01*
X70899981Y-85784832D01*
X72176405Y-84508408D01*
X72238717Y-84474382D01*
X72309532Y-84479447D01*
X72366368Y-84521994D01*
X72391179Y-84588514D01*
X72391500Y-84597503D01*
X72391500Y-87065500D01*
X72371498Y-87133621D01*
X72317842Y-87180114D01*
X72265500Y-87191500D01*
X72126866Y-87191500D01*
X72064684Y-87198255D01*
X71928295Y-87249385D01*
X71811739Y-87336739D01*
X71724385Y-87453295D01*
X71673255Y-87589684D01*
X71666500Y-87651866D01*
X71666500Y-89448134D01*
X71673255Y-89510316D01*
X71724385Y-89646705D01*
X71811739Y-89763261D01*
X71928295Y-89850615D01*
X71936704Y-89853767D01*
X71936705Y-89853768D01*
X72045451Y-89894535D01*
X72102216Y-89937176D01*
X72126916Y-90003738D01*
X72111709Y-90073087D01*
X72092316Y-90099568D01*
X71965629Y-90232138D01*
X71962715Y-90236410D01*
X71962714Y-90236411D01*
X71907321Y-90317614D01*
X71839743Y-90416680D01*
X71745688Y-90619305D01*
X71685989Y-90834570D01*
X71662251Y-91056695D01*
X71662548Y-91061848D01*
X71662548Y-91061851D01*
X71669590Y-91183986D01*
X71675110Y-91279715D01*
X71676247Y-91284761D01*
X71676248Y-91284767D01*
X71690449Y-91347778D01*
X71724222Y-91497639D01*
X71808266Y-91704616D01*
X71845435Y-91765271D01*
X71921509Y-91889412D01*
X71924987Y-91895088D01*
X72071250Y-92063938D01*
X72243126Y-92206632D01*
X72271799Y-92223387D01*
X72316445Y-92249476D01*
X72365169Y-92301114D01*
X72378240Y-92370897D01*
X72351509Y-92436669D01*
X72311055Y-92470027D01*
X72298607Y-92476507D01*
X72294474Y-92479610D01*
X72294471Y-92479612D01*
X72185798Y-92561206D01*
X72119965Y-92610635D01*
X71965629Y-92772138D01*
X71839743Y-92956680D01*
X71803913Y-93033870D01*
X71775223Y-93095678D01*
X71745688Y-93159305D01*
X71685989Y-93374570D01*
X71662251Y-93596695D01*
X71662548Y-93601848D01*
X71662548Y-93601851D01*
X71668011Y-93696590D01*
X71675110Y-93819715D01*
X71676247Y-93824761D01*
X71676248Y-93824767D01*
X71688331Y-93878382D01*
X71724222Y-94037639D01*
X71808266Y-94244616D01*
X71924987Y-94435088D01*
X72071250Y-94603938D01*
X72243126Y-94746632D01*
X72281002Y-94768765D01*
X72316445Y-94789476D01*
X72365169Y-94841114D01*
X72378240Y-94910897D01*
X72351509Y-94976669D01*
X72311055Y-95010027D01*
X72298607Y-95016507D01*
X72294474Y-95019610D01*
X72294471Y-95019612D01*
X72175649Y-95108826D01*
X72119965Y-95150635D01*
X71965629Y-95312138D01*
X71962715Y-95316410D01*
X71962714Y-95316411D01*
X71951416Y-95332973D01*
X71839743Y-95496680D01*
X71824003Y-95530590D01*
X71787671Y-95608861D01*
X71745688Y-95699305D01*
X71685989Y-95914570D01*
X71662251Y-96136695D01*
X71662548Y-96141848D01*
X71662548Y-96141851D01*
X71668011Y-96236590D01*
X71675110Y-96359715D01*
X71676247Y-96364761D01*
X71676248Y-96364767D01*
X71689597Y-96424000D01*
X71724222Y-96577639D01*
X71808266Y-96784616D01*
X71810965Y-96789020D01*
X71911496Y-96953072D01*
X71924987Y-96975088D01*
X72071250Y-97143938D01*
X72243126Y-97286632D01*
X72271941Y-97303470D01*
X72316445Y-97329476D01*
X72365169Y-97381114D01*
X72378240Y-97450897D01*
X72351509Y-97516669D01*
X72311055Y-97550027D01*
X72298607Y-97556507D01*
X72294474Y-97559610D01*
X72294471Y-97559612D01*
X72175649Y-97648826D01*
X72119965Y-97690635D01*
X72068491Y-97744499D01*
X71983944Y-97832973D01*
X71965629Y-97852138D01*
X71839743Y-98036680D01*
X71745688Y-98239305D01*
X71685989Y-98454570D01*
X71662251Y-98676695D01*
X71662548Y-98681848D01*
X71662548Y-98681851D01*
X71668011Y-98776590D01*
X71675110Y-98899715D01*
X71676247Y-98904761D01*
X71676248Y-98904767D01*
X71689597Y-98964000D01*
X71724222Y-99117639D01*
X71808266Y-99324616D01*
X71924987Y-99515088D01*
X72071250Y-99683938D01*
X72173425Y-99768765D01*
X72232204Y-99817564D01*
X72243126Y-99826632D01*
X72436000Y-99939338D01*
X72440825Y-99941180D01*
X72440826Y-99941181D01*
X72513612Y-99968975D01*
X72644692Y-100019030D01*
X72649760Y-100020061D01*
X72649763Y-100020062D01*
X72744862Y-100039410D01*
X72863597Y-100063567D01*
X72868772Y-100063757D01*
X72868774Y-100063757D01*
X73081673Y-100071564D01*
X73081677Y-100071564D01*
X73086837Y-100071753D01*
X73091957Y-100071097D01*
X73091959Y-100071097D01*
X73303288Y-100044025D01*
X73303289Y-100044025D01*
X73308416Y-100043368D01*
X73313366Y-100041883D01*
X73517429Y-99980661D01*
X73517434Y-99980659D01*
X73522384Y-99979174D01*
X73722994Y-99880896D01*
X73904860Y-99751173D01*
X73912716Y-99743345D01*
X74059435Y-99597137D01*
X74063096Y-99593489D01*
X74076434Y-99574928D01*
X74190435Y-99416277D01*
X74193453Y-99412077D01*
X74214707Y-99369074D01*
X74290136Y-99216453D01*
X74290137Y-99216451D01*
X74292430Y-99211811D01*
X74352699Y-99013444D01*
X74355865Y-99003023D01*
X74355865Y-99003021D01*
X74357370Y-98998069D01*
X74386529Y-98776590D01*
X74388156Y-98710000D01*
X74369852Y-98487361D01*
X74315431Y-98270702D01*
X74226354Y-98065840D01*
X74105014Y-97878277D01*
X73954670Y-97713051D01*
X73950619Y-97709852D01*
X73950615Y-97709848D01*
X73783414Y-97577800D01*
X73783410Y-97577798D01*
X73779359Y-97574598D01*
X73738053Y-97551796D01*
X73688084Y-97501364D01*
X73673312Y-97431921D01*
X73698428Y-97365516D01*
X73725780Y-97338909D01*
X73792908Y-97291027D01*
X73904860Y-97211173D01*
X73909550Y-97206500D01*
X74000236Y-97116130D01*
X74063096Y-97053489D01*
X74081226Y-97028259D01*
X74190435Y-96876277D01*
X74193453Y-96872077D01*
X74292430Y-96671811D01*
X74357370Y-96458069D01*
X74386529Y-96236590D01*
X74388156Y-96170000D01*
X74369852Y-95947361D01*
X74315431Y-95730702D01*
X74226354Y-95525840D01*
X74186906Y-95464862D01*
X74107822Y-95342617D01*
X74107820Y-95342614D01*
X74105014Y-95338277D01*
X73954670Y-95173051D01*
X73950619Y-95169852D01*
X73950615Y-95169848D01*
X73783414Y-95037800D01*
X73783410Y-95037798D01*
X73779359Y-95034598D01*
X73738053Y-95011796D01*
X73688084Y-94961364D01*
X73673312Y-94891921D01*
X73698428Y-94825516D01*
X73725780Y-94798909D01*
X73792908Y-94751027D01*
X73904860Y-94671173D01*
X74063096Y-94513489D01*
X74122594Y-94430689D01*
X74190435Y-94336277D01*
X74193453Y-94332077D01*
X74235330Y-94247346D01*
X74290136Y-94136453D01*
X74290137Y-94136451D01*
X74292430Y-94131811D01*
X74357370Y-93918069D01*
X74386529Y-93696590D01*
X74388156Y-93630000D01*
X74369852Y-93407361D01*
X74315431Y-93190702D01*
X74226354Y-92985840D01*
X74149366Y-92866835D01*
X74107822Y-92802617D01*
X74107820Y-92802614D01*
X74105014Y-92798277D01*
X73954670Y-92633051D01*
X73950619Y-92629852D01*
X73950615Y-92629848D01*
X73783414Y-92497800D01*
X73783410Y-92497798D01*
X73779359Y-92494598D01*
X73738053Y-92471796D01*
X73688084Y-92421364D01*
X73673312Y-92351921D01*
X73698428Y-92285516D01*
X73725780Y-92258909D01*
X73793598Y-92210535D01*
X73904860Y-92131173D01*
X74063096Y-91973489D01*
X74106677Y-91912840D01*
X74190435Y-91796277D01*
X74193453Y-91792077D01*
X74206702Y-91765271D01*
X74290136Y-91596453D01*
X74290137Y-91596451D01*
X74292430Y-91591811D01*
X74350707Y-91400000D01*
X74355865Y-91383023D01*
X74355865Y-91383021D01*
X74357370Y-91378069D01*
X74386529Y-91156590D01*
X74388156Y-91090000D01*
X74369852Y-90867361D01*
X74315431Y-90650702D01*
X74226354Y-90445840D01*
X74105014Y-90258277D01*
X74101532Y-90254450D01*
X73957798Y-90096488D01*
X73926746Y-90032642D01*
X73935141Y-89962143D01*
X73980317Y-89907375D01*
X74006761Y-89893706D01*
X74113297Y-89853767D01*
X74121705Y-89850615D01*
X74238261Y-89763261D01*
X74325615Y-89646705D01*
X74376745Y-89510316D01*
X74383500Y-89448134D01*
X74383500Y-87651866D01*
X74376745Y-87589684D01*
X74325615Y-87453295D01*
X74238261Y-87336739D01*
X74121705Y-87249385D01*
X73985316Y-87198255D01*
X73923134Y-87191500D01*
X73784500Y-87191500D01*
X73716379Y-87171498D01*
X73669886Y-87117842D01*
X73658500Y-87065500D01*
X73658500Y-84689594D01*
X73678502Y-84621473D01*
X73695405Y-84600499D01*
X74550499Y-83745405D01*
X74612811Y-83711379D01*
X74639594Y-83708500D01*
X74695487Y-83708500D01*
X74701939Y-83707128D01*
X74701944Y-83707128D01*
X74788888Y-83688647D01*
X74882288Y-83668794D01*
X74961230Y-83633647D01*
X75050722Y-83593803D01*
X75050724Y-83593802D01*
X75056752Y-83591118D01*
X75211253Y-83478866D01*
X75220322Y-83468794D01*
X75334621Y-83341852D01*
X75334622Y-83341851D01*
X75339040Y-83336944D01*
X75434527Y-83171556D01*
X75493542Y-82989928D01*
X75494814Y-82977832D01*
X75512814Y-82806565D01*
X75513504Y-82800000D01*
X75504845Y-82717614D01*
X75494232Y-82616635D01*
X75494232Y-82616633D01*
X75493542Y-82610072D01*
X75434527Y-82428444D01*
X75339040Y-82263056D01*
X75211253Y-82121134D01*
X75212816Y-82119727D01*
X75180758Y-82067689D01*
X75182110Y-81996705D01*
X75221625Y-81937721D01*
X75286756Y-81909464D01*
X75302308Y-81908500D01*
X75771497Y-81908500D01*
X75839618Y-81928502D01*
G37*
%TD.AperFunction*%
%TA.AperFunction,Conductor*%
G36*
X89203526Y-80853502D02*
G01*
X89224501Y-80870405D01*
X89603063Y-81248968D01*
X89971353Y-81617258D01*
X89978887Y-81625537D01*
X89983000Y-81632018D01*
X90009922Y-81657299D01*
X90032651Y-81678643D01*
X90035493Y-81681398D01*
X90055230Y-81701135D01*
X90058427Y-81703615D01*
X90067447Y-81711318D01*
X90099679Y-81741586D01*
X90106625Y-81745405D01*
X90106628Y-81745407D01*
X90117434Y-81751348D01*
X90133953Y-81762199D01*
X90149959Y-81774614D01*
X90157228Y-81777759D01*
X90157232Y-81777762D01*
X90190537Y-81792174D01*
X90201187Y-81797391D01*
X90239940Y-81818695D01*
X90247615Y-81820666D01*
X90247616Y-81820666D01*
X90259562Y-81823733D01*
X90278267Y-81830137D01*
X90296855Y-81838181D01*
X90304678Y-81839420D01*
X90304688Y-81839423D01*
X90340524Y-81845099D01*
X90352144Y-81847505D01*
X90381544Y-81855053D01*
X90394970Y-81858500D01*
X90415224Y-81858500D01*
X90434934Y-81860051D01*
X90454943Y-81863220D01*
X90462835Y-81862474D01*
X90498961Y-81859059D01*
X90510819Y-81858500D01*
X94883218Y-81858500D01*
X94951339Y-81878502D01*
X94997832Y-81932158D01*
X95007936Y-82002432D01*
X94996273Y-82040129D01*
X94950270Y-82133621D01*
X94945845Y-82145519D01*
X94930749Y-82203470D01*
X94931183Y-82217564D01*
X94939364Y-82221000D01*
X96228000Y-82221000D01*
X96296121Y-82241002D01*
X96342614Y-82294658D01*
X96354000Y-82347000D01*
X96354000Y-82603000D01*
X96333998Y-82671121D01*
X96280342Y-82717614D01*
X96228000Y-82729000D01*
X94940771Y-82729000D01*
X94925532Y-82733475D01*
X94912424Y-82748602D01*
X94901277Y-82773011D01*
X94841552Y-82811396D01*
X94806052Y-82816500D01*
X90553503Y-82816500D01*
X90485382Y-82796498D01*
X90464408Y-82779595D01*
X89099981Y-81415168D01*
X89087140Y-81400135D01*
X89082746Y-81394087D01*
X89082745Y-81394086D01*
X89078866Y-81388747D01*
X89028041Y-81342984D01*
X89023256Y-81338443D01*
X89008741Y-81323928D01*
X88994747Y-81312596D01*
X88992784Y-81311006D01*
X88987769Y-81306722D01*
X88941855Y-81265381D01*
X88941850Y-81265377D01*
X88936944Y-81260960D01*
X88931228Y-81257660D01*
X88931224Y-81257657D01*
X88924763Y-81253927D01*
X88908466Y-81242727D01*
X88902660Y-81238025D01*
X88902658Y-81238024D01*
X88897530Y-81233871D01*
X88836577Y-81202814D01*
X88830782Y-81199667D01*
X88777279Y-81168777D01*
X88777278Y-81168776D01*
X88771556Y-81165473D01*
X88765274Y-81163432D01*
X88765272Y-81163431D01*
X88758174Y-81161125D01*
X88739907Y-81153559D01*
X88727370Y-81147171D01*
X88720989Y-81145461D01*
X88702852Y-81140601D01*
X88661299Y-81129467D01*
X88654997Y-81127600D01*
X88589928Y-81106458D01*
X88583363Y-81105768D01*
X88583354Y-81105766D01*
X88575925Y-81104985D01*
X88556491Y-81101383D01*
X88549286Y-81099453D01*
X88549284Y-81099453D01*
X88542903Y-81097743D01*
X88536312Y-81097398D01*
X88536308Y-81097397D01*
X88474616Y-81094164D01*
X88468042Y-81093647D01*
X88450884Y-81091844D01*
X88450882Y-81091844D01*
X88447610Y-81091500D01*
X88427074Y-81091500D01*
X88420480Y-81091327D01*
X88358782Y-81088093D01*
X88358777Y-81088093D01*
X88352190Y-81087748D01*
X88338292Y-81089949D01*
X88318583Y-81091500D01*
X79681416Y-81091500D01*
X79661707Y-81089949D01*
X79647809Y-81087748D01*
X79641222Y-81088093D01*
X79641217Y-81088093D01*
X79579519Y-81091327D01*
X79572925Y-81091500D01*
X79552390Y-81091500D01*
X79546222Y-81092148D01*
X79531960Y-81093647D01*
X79525385Y-81094164D01*
X79463696Y-81097397D01*
X79463695Y-81097397D01*
X79457096Y-81097743D01*
X79443508Y-81101384D01*
X79424061Y-81104988D01*
X79416644Y-81105767D01*
X79416640Y-81105768D01*
X79410072Y-81106458D01*
X79372167Y-81118774D01*
X79345009Y-81127598D01*
X79338685Y-81129471D01*
X79279010Y-81145461D01*
X79279006Y-81145462D01*
X79272630Y-81147171D01*
X79266748Y-81150168D01*
X79260093Y-81153559D01*
X79241826Y-81161125D01*
X79234728Y-81163431D01*
X79234726Y-81163432D01*
X79228444Y-81165473D01*
X79210670Y-81175735D01*
X79176868Y-81195250D01*
X79107872Y-81211987D01*
X79040781Y-81188766D01*
X78996894Y-81132958D01*
X78990146Y-81062283D01*
X79004748Y-81023135D01*
X79034527Y-80971556D01*
X79051095Y-80920565D01*
X79091168Y-80861959D01*
X79156564Y-80834321D01*
X79170928Y-80833500D01*
X89135405Y-80833500D01*
X89203526Y-80853502D01*
G37*
%TD.AperFunction*%
%TA.AperFunction,Conductor*%
G36*
X73834527Y-72853502D02*
G01*
X73881020Y-72907158D01*
X73891124Y-72977432D01*
X73861630Y-73042012D01*
X73855502Y-73048594D01*
X72431816Y-74472279D01*
X71607747Y-75296348D01*
X71599461Y-75303888D01*
X71592982Y-75308000D01*
X71587557Y-75313777D01*
X71546357Y-75357651D01*
X71543602Y-75360493D01*
X71523865Y-75380230D01*
X71521385Y-75383427D01*
X71513682Y-75392447D01*
X71483414Y-75424679D01*
X71479595Y-75431625D01*
X71479593Y-75431628D01*
X71473652Y-75442434D01*
X71462801Y-75458953D01*
X71450386Y-75474959D01*
X71447241Y-75482228D01*
X71447238Y-75482232D01*
X71432826Y-75515537D01*
X71427609Y-75526187D01*
X71406305Y-75564940D01*
X71404334Y-75572615D01*
X71404334Y-75572616D01*
X71401267Y-75584562D01*
X71394863Y-75603266D01*
X71386819Y-75621855D01*
X71385580Y-75629678D01*
X71385577Y-75629688D01*
X71379901Y-75665524D01*
X71377495Y-75677144D01*
X71373457Y-75692872D01*
X71366500Y-75719970D01*
X71366500Y-75740224D01*
X71364949Y-75759934D01*
X71361780Y-75779943D01*
X71362526Y-75787835D01*
X71365941Y-75823961D01*
X71366500Y-75835819D01*
X71366500Y-81350735D01*
X71346498Y-81418856D01*
X71292842Y-81465349D01*
X71222568Y-81475453D01*
X71157988Y-81445959D01*
X71120667Y-81389671D01*
X71106012Y-81344566D01*
X71084527Y-81278444D01*
X70989040Y-81113056D01*
X70968235Y-81089949D01*
X70865675Y-80976045D01*
X70865674Y-80976044D01*
X70861253Y-80971134D01*
X70746050Y-80887434D01*
X70712094Y-80862763D01*
X70712093Y-80862762D01*
X70706752Y-80858882D01*
X70700724Y-80856198D01*
X70700722Y-80856197D01*
X70538319Y-80783891D01*
X70538318Y-80783891D01*
X70532288Y-80781206D01*
X70438887Y-80761353D01*
X70351944Y-80742872D01*
X70351939Y-80742872D01*
X70345487Y-80741500D01*
X70289595Y-80741500D01*
X70221474Y-80721498D01*
X70200500Y-80704595D01*
X70145894Y-80649989D01*
X70111868Y-80587677D01*
X70108989Y-80560894D01*
X70108989Y-73439106D01*
X70128991Y-73370985D01*
X70145894Y-73350010D01*
X70625501Y-72870404D01*
X70687813Y-72836379D01*
X70714596Y-72833500D01*
X73766406Y-72833500D01*
X73834527Y-72853502D01*
G37*
%TD.AperFunction*%
%TA.AperFunction,Conductor*%
G36*
X66502136Y-66528002D02*
G01*
X66548629Y-66581658D01*
X66558733Y-66651932D01*
X66529239Y-66716512D01*
X66498438Y-66742285D01*
X66478355Y-66754233D01*
X66472091Y-66758490D01*
X66286385Y-66901762D01*
X66277917Y-66913423D01*
X66284520Y-66925309D01*
X67987190Y-68627980D01*
X68001131Y-68635592D01*
X68002966Y-68635461D01*
X68009580Y-68631210D01*
X69714559Y-66926230D01*
X69721571Y-66913389D01*
X69713777Y-66902701D01*
X69551298Y-66774613D01*
X69545075Y-66770288D01*
X69497992Y-66741605D01*
X69450223Y-66689082D01*
X69438432Y-66619072D01*
X69466365Y-66553801D01*
X69525151Y-66513992D01*
X69563545Y-66508000D01*
X77369431Y-66508000D01*
X77437552Y-66528002D01*
X77484045Y-66581658D01*
X77494149Y-66651932D01*
X77470257Y-66709565D01*
X77405214Y-66796352D01*
X77396676Y-66811946D01*
X77351522Y-66932394D01*
X77347895Y-66947649D01*
X77342369Y-66998514D01*
X77342000Y-67005328D01*
X77342000Y-67527885D01*
X77346475Y-67543124D01*
X77347865Y-67544329D01*
X77355548Y-67546000D01*
X79839884Y-67546000D01*
X79855123Y-67541525D01*
X79856328Y-67540135D01*
X79857999Y-67532452D01*
X79857999Y-67005331D01*
X79857629Y-66998510D01*
X79852105Y-66947648D01*
X79848479Y-66932396D01*
X79803324Y-66811946D01*
X79794786Y-66796352D01*
X79729743Y-66709565D01*
X79704895Y-66643059D01*
X79719948Y-66573676D01*
X79770122Y-66523446D01*
X79830569Y-66508000D01*
X82168806Y-66508000D01*
X82236927Y-66528002D01*
X82283420Y-66581658D01*
X82293524Y-66651932D01*
X82269632Y-66709565D01*
X82199385Y-66803295D01*
X82148255Y-66939684D01*
X82141500Y-67001866D01*
X82141500Y-68598134D01*
X82148255Y-68660316D01*
X82199385Y-68796705D01*
X82286739Y-68913261D01*
X82293919Y-68918642D01*
X82293920Y-68918643D01*
X82401372Y-68999174D01*
X82443887Y-69056033D01*
X82448913Y-69126852D01*
X82414853Y-69189145D01*
X82401372Y-69200826D01*
X82286739Y-69286739D01*
X82199385Y-69403295D01*
X82148255Y-69539684D01*
X82141500Y-69601866D01*
X82141500Y-71198134D01*
X82148255Y-71260316D01*
X82199282Y-71396430D01*
X82204465Y-71467238D01*
X82170544Y-71529607D01*
X82108289Y-71563736D01*
X82080030Y-71565016D01*
X82080030Y-71566500D01*
X82059776Y-71566500D01*
X82040065Y-71564949D01*
X82040009Y-71564940D01*
X82020057Y-71561780D01*
X81978938Y-71565667D01*
X81976039Y-71565941D01*
X81964181Y-71566500D01*
X79812413Y-71566500D01*
X79744292Y-71546498D01*
X79697799Y-71492842D01*
X79687695Y-71422568D01*
X79714393Y-71364110D01*
X79713261Y-71363261D01*
X79717152Y-71358070D01*
X79717153Y-71358068D01*
X79717466Y-71357651D01*
X79758729Y-71302593D01*
X79800615Y-71246705D01*
X79851745Y-71110316D01*
X79858500Y-71048134D01*
X79858500Y-69451866D01*
X79851745Y-69389684D01*
X79800615Y-69253295D01*
X79713261Y-69136739D01*
X79706081Y-69131358D01*
X79706079Y-69131356D01*
X79698285Y-69125515D01*
X79655769Y-69068657D01*
X79650742Y-68997838D01*
X79684801Y-68935545D01*
X79698282Y-68923862D01*
X79705726Y-68918283D01*
X79718285Y-68905724D01*
X79794786Y-68803649D01*
X79803324Y-68788054D01*
X79848478Y-68667606D01*
X79852105Y-68652351D01*
X79857631Y-68601486D01*
X79858000Y-68594672D01*
X79858000Y-68072115D01*
X79853525Y-68056876D01*
X79852135Y-68055671D01*
X79844452Y-68054000D01*
X77360116Y-68054000D01*
X77344877Y-68058475D01*
X77343672Y-68059865D01*
X77342001Y-68067548D01*
X77342001Y-68594669D01*
X77342371Y-68601490D01*
X77347895Y-68652352D01*
X77351521Y-68667604D01*
X77396676Y-68788054D01*
X77405214Y-68803649D01*
X77481715Y-68905724D01*
X77494274Y-68918283D01*
X77501718Y-68923862D01*
X77544232Y-68980722D01*
X77549257Y-69051541D01*
X77515197Y-69113834D01*
X77501715Y-69125515D01*
X77493921Y-69131356D01*
X77493919Y-69131358D01*
X77486739Y-69136739D01*
X77399385Y-69253295D01*
X77348255Y-69389684D01*
X77341500Y-69451866D01*
X77341500Y-69490500D01*
X77321498Y-69558621D01*
X77267842Y-69605114D01*
X77215500Y-69616500D01*
X75353219Y-69616500D01*
X75285098Y-69596498D01*
X75259583Y-69574810D01*
X75215675Y-69526045D01*
X75215674Y-69526044D01*
X75211253Y-69521134D01*
X75056752Y-69408882D01*
X75050724Y-69406198D01*
X75050722Y-69406197D01*
X74888319Y-69333891D01*
X74888318Y-69333891D01*
X74882288Y-69331206D01*
X74788887Y-69311353D01*
X74701944Y-69292872D01*
X74701939Y-69292872D01*
X74695487Y-69291500D01*
X74504513Y-69291500D01*
X74498061Y-69292872D01*
X74498056Y-69292872D01*
X74411113Y-69311353D01*
X74317712Y-69331206D01*
X74311682Y-69333891D01*
X74311681Y-69333891D01*
X74149278Y-69406197D01*
X74149276Y-69406198D01*
X74143248Y-69408882D01*
X73988747Y-69521134D01*
X73984326Y-69526044D01*
X73984325Y-69526045D01*
X73954994Y-69558621D01*
X73860960Y-69663056D01*
X73765473Y-69828444D01*
X73706458Y-70010072D01*
X73686496Y-70200000D01*
X73706458Y-70389928D01*
X73765473Y-70571556D01*
X73768776Y-70577278D01*
X73768777Y-70577279D01*
X73773844Y-70586055D01*
X73860960Y-70736944D01*
X73988747Y-70878866D01*
X74143248Y-70991118D01*
X74149276Y-70993802D01*
X74149278Y-70993803D01*
X74278938Y-71051531D01*
X74317712Y-71068794D01*
X74405698Y-71087496D01*
X74498056Y-71107128D01*
X74498061Y-71107128D01*
X74504513Y-71108500D01*
X74695487Y-71108500D01*
X74701939Y-71107128D01*
X74701944Y-71107128D01*
X74794302Y-71087496D01*
X74882288Y-71068794D01*
X74921062Y-71051531D01*
X75050722Y-70993803D01*
X75050724Y-70993802D01*
X75056752Y-70991118D01*
X75171754Y-70907564D01*
X75238622Y-70883705D01*
X75245815Y-70883500D01*
X77215500Y-70883500D01*
X77283621Y-70903502D01*
X77330114Y-70957158D01*
X77341500Y-71009500D01*
X77341500Y-71048134D01*
X77348255Y-71110316D01*
X77399385Y-71246705D01*
X77486739Y-71363261D01*
X77484197Y-71365166D01*
X77510708Y-71413717D01*
X77505643Y-71484532D01*
X77463096Y-71541368D01*
X77396576Y-71566179D01*
X77387587Y-71566500D01*
X70478767Y-71566500D01*
X70467584Y-71565973D01*
X70460091Y-71564298D01*
X70452165Y-71564547D01*
X70452164Y-71564547D01*
X70392014Y-71566438D01*
X70388055Y-71566500D01*
X70360144Y-71566500D01*
X70356210Y-71566997D01*
X70356209Y-71566997D01*
X70356144Y-71567005D01*
X70344307Y-71567938D01*
X70312049Y-71568952D01*
X70308030Y-71569078D01*
X70300111Y-71569327D01*
X70280657Y-71574979D01*
X70261300Y-71578987D01*
X70249070Y-71580532D01*
X70249069Y-71580532D01*
X70241203Y-71581526D01*
X70233832Y-71584445D01*
X70233830Y-71584445D01*
X70200088Y-71597804D01*
X70188858Y-71601649D01*
X70154017Y-71611771D01*
X70154016Y-71611771D01*
X70146407Y-71613982D01*
X70139588Y-71618015D01*
X70139583Y-71618017D01*
X70128972Y-71624293D01*
X70111224Y-71632988D01*
X70092383Y-71640448D01*
X70085967Y-71645110D01*
X70085966Y-71645110D01*
X70056613Y-71666436D01*
X70046693Y-71672952D01*
X70015465Y-71691420D01*
X70015462Y-71691422D01*
X70008638Y-71695458D01*
X69994317Y-71709779D01*
X69979284Y-71722619D01*
X69962893Y-71734528D01*
X69957842Y-71740633D01*
X69957837Y-71740638D01*
X69934701Y-71768604D01*
X69926713Y-71777382D01*
X69083236Y-72620859D01*
X69074950Y-72628399D01*
X69068471Y-72632511D01*
X69063046Y-72638288D01*
X69021846Y-72682162D01*
X69019091Y-72685004D01*
X68999354Y-72704741D01*
X68996874Y-72707938D01*
X68989171Y-72716958D01*
X68958903Y-72749190D01*
X68955084Y-72756136D01*
X68955082Y-72756139D01*
X68949141Y-72766945D01*
X68938290Y-72783464D01*
X68925875Y-72799470D01*
X68922730Y-72806739D01*
X68922727Y-72806743D01*
X68908315Y-72840048D01*
X68903098Y-72850698D01*
X68881794Y-72889451D01*
X68879823Y-72897126D01*
X68879823Y-72897127D01*
X68876756Y-72909073D01*
X68870352Y-72927777D01*
X68862308Y-72946366D01*
X68861069Y-72954189D01*
X68861066Y-72954199D01*
X68855390Y-72990035D01*
X68852984Y-73001655D01*
X68847614Y-73022572D01*
X68841989Y-73044481D01*
X68841989Y-73064735D01*
X68840438Y-73084445D01*
X68837269Y-73104454D01*
X68840915Y-73143019D01*
X68841430Y-73148472D01*
X68841989Y-73160330D01*
X68841989Y-77098387D01*
X68821987Y-77166508D01*
X68768331Y-77213001D01*
X68698057Y-77223105D01*
X68656778Y-77208819D01*
X68656750Y-77208881D01*
X68656023Y-77208557D01*
X68656019Y-77208555D01*
X68650723Y-77206198D01*
X68650720Y-77206196D01*
X68643894Y-77203157D01*
X68626520Y-77193724D01*
X68614722Y-77186062D01*
X68608561Y-77183697D01*
X68608557Y-77183695D01*
X68550867Y-77161550D01*
X68544794Y-77159035D01*
X68482288Y-77131206D01*
X68475834Y-77129834D01*
X68475830Y-77129833D01*
X68468527Y-77128281D01*
X68449568Y-77122666D01*
X68436432Y-77117623D01*
X68411993Y-77113752D01*
X68368883Y-77106924D01*
X68362399Y-77105722D01*
X68301946Y-77092873D01*
X68301947Y-77092873D01*
X68295487Y-77091500D01*
X68281416Y-77091500D01*
X68261707Y-77089949D01*
X68247809Y-77087748D01*
X68241222Y-77088093D01*
X68241217Y-77088093D01*
X68179519Y-77091327D01*
X68172925Y-77091500D01*
X68104513Y-77091500D01*
X68098053Y-77092873D01*
X68098046Y-77092874D01*
X68090747Y-77094426D01*
X68071142Y-77097007D01*
X68070471Y-77097042D01*
X68057096Y-77097743D01*
X68050721Y-77099451D01*
X68050716Y-77099452D01*
X67991034Y-77115444D01*
X67984626Y-77116983D01*
X67917712Y-77131206D01*
X67911677Y-77133893D01*
X67904853Y-77136931D01*
X67886221Y-77143529D01*
X67880817Y-77144977D01*
X67872630Y-77147171D01*
X67849363Y-77159026D01*
X67811693Y-77178219D01*
X67805741Y-77181058D01*
X67743248Y-77208882D01*
X67737906Y-77212763D01*
X67731862Y-77217154D01*
X67715011Y-77227480D01*
X67702469Y-77233871D01*
X67697335Y-77238028D01*
X67697331Y-77238031D01*
X67649307Y-77276920D01*
X67644085Y-77280929D01*
X67588747Y-77321134D01*
X67584326Y-77326044D01*
X67584325Y-77326045D01*
X67542984Y-77371959D01*
X67538443Y-77376744D01*
X65815168Y-79100019D01*
X65800135Y-79112860D01*
X65788747Y-79121134D01*
X65784327Y-79126043D01*
X65742984Y-79171959D01*
X65738443Y-79176744D01*
X65723928Y-79191259D01*
X65722955Y-79190286D01*
X65667181Y-79224642D01*
X65596197Y-79223285D01*
X65537216Y-79183766D01*
X65508963Y-79118634D01*
X65508000Y-79103089D01*
X65508000Y-71086423D01*
X66278703Y-71086423D01*
X66286227Y-71096854D01*
X66425483Y-71209020D01*
X66431657Y-71213408D01*
X66702271Y-71382178D01*
X66708931Y-71385794D01*
X66997852Y-71520827D01*
X67004905Y-71523620D01*
X67307970Y-71622970D01*
X67315282Y-71624888D01*
X67628092Y-71687109D01*
X67635590Y-71688137D01*
X67953610Y-71712328D01*
X67961173Y-71712446D01*
X68279785Y-71698257D01*
X68287326Y-71697465D01*
X68601924Y-71645101D01*
X68609302Y-71643411D01*
X68915355Y-71553625D01*
X68922450Y-71551071D01*
X69215496Y-71425169D01*
X69222263Y-71421765D01*
X69498042Y-71261580D01*
X69504349Y-71257390D01*
X69714305Y-71098889D01*
X69722761Y-71087496D01*
X69716045Y-71075256D01*
X68012810Y-69372020D01*
X67998869Y-69364408D01*
X67997034Y-69364539D01*
X67990420Y-69368790D01*
X66285818Y-71073393D01*
X66278703Y-71086423D01*
X65508000Y-71086423D01*
X65508000Y-70567469D01*
X65528002Y-70499348D01*
X65581658Y-70452855D01*
X65651932Y-70442751D01*
X65716512Y-70472245D01*
X65742622Y-70503615D01*
X65746299Y-70509870D01*
X65750519Y-70516150D01*
X65901463Y-70713934D01*
X65912989Y-70722396D01*
X65925054Y-70715735D01*
X67627980Y-69012810D01*
X67634357Y-69001131D01*
X68364408Y-69001131D01*
X68364539Y-69002966D01*
X68368790Y-69009580D01*
X70073285Y-70714074D01*
X70086408Y-70721240D01*
X70096709Y-70713851D01*
X70200751Y-70586055D01*
X70205164Y-70579914D01*
X70375349Y-70310187D01*
X70379005Y-70303536D01*
X70515544Y-70015335D01*
X70518375Y-70008295D01*
X70619306Y-69705767D01*
X70621270Y-69698433D01*
X70685122Y-69385989D01*
X70686194Y-69378465D01*
X70712173Y-69059051D01*
X70712378Y-69054576D01*
X70712927Y-69002221D01*
X70712817Y-68997789D01*
X70693529Y-68677853D01*
X70692621Y-68670351D01*
X70635319Y-68356593D01*
X70633518Y-68349260D01*
X70538935Y-68044655D01*
X70536263Y-68037583D01*
X70405781Y-67746570D01*
X70402264Y-67739843D01*
X70237771Y-67466621D01*
X70233481Y-67460377D01*
X70097991Y-67286647D01*
X70086199Y-67278178D01*
X70074486Y-67284725D01*
X68372020Y-68987190D01*
X68364408Y-69001131D01*
X67634357Y-69001131D01*
X67635592Y-68998869D01*
X67635461Y-68997034D01*
X67631210Y-68990420D01*
X65926445Y-67285656D01*
X65913510Y-67278592D01*
X65902949Y-67286252D01*
X65782766Y-67437072D01*
X65778410Y-67443270D01*
X65741260Y-67503538D01*
X65688487Y-67551032D01*
X65618416Y-67562455D01*
X65553292Y-67534181D01*
X65513793Y-67475187D01*
X65508000Y-67437422D01*
X65508000Y-66634000D01*
X65528002Y-66565879D01*
X65581658Y-66519386D01*
X65634000Y-66508000D01*
X66434015Y-66508000D01*
X66502136Y-66528002D01*
G37*
%TD.AperFunction*%
%TA.AperFunction,Conductor*%
G36*
X93002136Y-66528002D02*
G01*
X93048629Y-66581658D01*
X93058733Y-66651932D01*
X93029239Y-66716512D01*
X92998438Y-66742285D01*
X92978355Y-66754233D01*
X92972091Y-66758490D01*
X92786385Y-66901762D01*
X92777917Y-66913423D01*
X92784520Y-66925309D01*
X94487190Y-68627980D01*
X94501131Y-68635592D01*
X94502966Y-68635461D01*
X94509580Y-68631210D01*
X96214559Y-66926230D01*
X96221571Y-66913389D01*
X96213777Y-66902701D01*
X96051298Y-66774613D01*
X96045075Y-66770288D01*
X95997992Y-66741605D01*
X95950223Y-66689082D01*
X95938432Y-66619072D01*
X95966365Y-66553801D01*
X96025151Y-66513992D01*
X96063545Y-66508000D01*
X96866000Y-66508000D01*
X96934121Y-66528002D01*
X96980614Y-66581658D01*
X96992000Y-66634000D01*
X96992000Y-67435321D01*
X96971998Y-67503442D01*
X96918342Y-67549935D01*
X96848068Y-67560039D01*
X96783488Y-67530545D01*
X96758054Y-67500310D01*
X96737772Y-67466621D01*
X96733481Y-67460377D01*
X96597991Y-67286647D01*
X96586199Y-67278178D01*
X96574486Y-67284725D01*
X94872020Y-68987190D01*
X94864408Y-69001131D01*
X94864539Y-69002966D01*
X94868790Y-69009580D01*
X96573285Y-70714074D01*
X96586408Y-70721240D01*
X96596709Y-70713851D01*
X96700751Y-70586055D01*
X96705164Y-70579914D01*
X96759438Y-70493894D01*
X96812705Y-70446955D01*
X96882892Y-70436266D01*
X96947716Y-70465220D01*
X96986596Y-70524625D01*
X96992000Y-70561129D01*
X96992000Y-71440949D01*
X96971998Y-71509070D01*
X96918342Y-71555563D01*
X96848068Y-71565667D01*
X96826333Y-71560542D01*
X96731285Y-71529016D01*
X96731283Y-71529016D01*
X96724757Y-71526851D01*
X96717920Y-71526151D01*
X96717918Y-71526150D01*
X96665963Y-71520827D01*
X96623732Y-71516500D01*
X96026953Y-71516500D01*
X95958832Y-71496498D01*
X95912339Y-71442842D01*
X95902235Y-71372568D01*
X95931729Y-71307988D01*
X95963668Y-71281546D01*
X95998042Y-71261580D01*
X96004349Y-71257390D01*
X96214305Y-71098889D01*
X96222761Y-71087496D01*
X96216045Y-71075256D01*
X94512810Y-69372020D01*
X94498869Y-69364408D01*
X94497034Y-69364539D01*
X94490420Y-69368790D01*
X92785818Y-71073393D01*
X92778703Y-71086423D01*
X92786227Y-71096854D01*
X92925483Y-71209020D01*
X92931657Y-71213408D01*
X93202271Y-71382178D01*
X93208931Y-71385794D01*
X93497852Y-71520827D01*
X93504905Y-71523620D01*
X93807970Y-71622970D01*
X93815282Y-71624888D01*
X94128092Y-71687109D01*
X94135590Y-71688137D01*
X94453610Y-71712328D01*
X94461173Y-71712446D01*
X94779785Y-71698257D01*
X94787326Y-71697465D01*
X94866735Y-71684247D01*
X94937216Y-71692793D01*
X94991887Y-71738087D01*
X95013392Y-71805748D01*
X94994683Y-71874652D01*
X94959540Y-71931665D01*
X94959538Y-71931670D01*
X94955698Y-71937899D01*
X94901851Y-72100243D01*
X94901151Y-72107080D01*
X94901150Y-72107082D01*
X94896917Y-72148401D01*
X94891500Y-72201268D01*
X94891500Y-72748732D01*
X94891837Y-72751978D01*
X94891837Y-72751982D01*
X94893390Y-72766945D01*
X94902113Y-72851019D01*
X94927004Y-72925626D01*
X94929588Y-72996573D01*
X94893405Y-73057657D01*
X94829941Y-73089482D01*
X94807480Y-73091500D01*
X89903768Y-73091500D01*
X89892585Y-73090973D01*
X89885092Y-73089298D01*
X89877166Y-73089547D01*
X89877165Y-73089547D01*
X89817002Y-73091438D01*
X89813044Y-73091500D01*
X89785144Y-73091500D01*
X89781154Y-73092004D01*
X89769320Y-73092936D01*
X89725111Y-73094326D01*
X89717497Y-73096538D01*
X89717492Y-73096539D01*
X89705659Y-73099977D01*
X89686296Y-73103988D01*
X89666203Y-73106526D01*
X89658836Y-73109443D01*
X89658831Y-73109444D01*
X89625092Y-73122802D01*
X89613865Y-73126646D01*
X89571407Y-73138982D01*
X89564581Y-73143019D01*
X89553972Y-73149293D01*
X89536224Y-73157988D01*
X89517383Y-73165448D01*
X89510967Y-73170110D01*
X89510966Y-73170110D01*
X89481613Y-73191436D01*
X89471693Y-73197952D01*
X89440465Y-73216420D01*
X89440462Y-73216422D01*
X89433638Y-73220458D01*
X89419317Y-73234779D01*
X89404284Y-73247619D01*
X89387893Y-73259528D01*
X89382843Y-73265632D01*
X89382838Y-73265637D01*
X89359707Y-73293598D01*
X89351717Y-73302379D01*
X88675835Y-73978260D01*
X88613523Y-74012285D01*
X88542707Y-74007220D01*
X88485872Y-73964673D01*
X88466907Y-73928100D01*
X88436569Y-73834729D01*
X88434527Y-73828444D01*
X88339040Y-73663056D01*
X88211253Y-73521134D01*
X88056752Y-73408882D01*
X88050724Y-73406198D01*
X88050722Y-73406197D01*
X87888319Y-73333891D01*
X87888318Y-73333891D01*
X87882288Y-73331206D01*
X87788887Y-73311353D01*
X87701944Y-73292872D01*
X87701939Y-73292872D01*
X87695487Y-73291500D01*
X87504513Y-73291500D01*
X87498061Y-73292872D01*
X87498056Y-73292872D01*
X87411113Y-73311353D01*
X87317712Y-73331206D01*
X87311682Y-73333891D01*
X87311681Y-73333891D01*
X87149278Y-73406197D01*
X87149276Y-73406198D01*
X87143248Y-73408882D01*
X86988747Y-73521134D01*
X86984332Y-73526037D01*
X86979420Y-73530460D01*
X86978295Y-73529211D01*
X86924986Y-73562051D01*
X86891800Y-73566500D01*
X86433594Y-73566500D01*
X86365473Y-73546498D01*
X86318980Y-73492842D01*
X86308876Y-73422568D01*
X86338370Y-73357988D01*
X86344499Y-73351405D01*
X86592247Y-73103657D01*
X86600537Y-73096113D01*
X86607018Y-73092000D01*
X86653659Y-73042332D01*
X86656413Y-73039491D01*
X86676135Y-73019769D01*
X86678612Y-73016576D01*
X86686317Y-73007555D01*
X86691857Y-73001655D01*
X86716586Y-72975321D01*
X86720407Y-72968371D01*
X86726346Y-72957568D01*
X86737202Y-72941041D01*
X86744757Y-72931302D01*
X86744758Y-72931300D01*
X86749614Y-72925040D01*
X86767174Y-72884460D01*
X86772391Y-72873812D01*
X86789875Y-72842009D01*
X86789876Y-72842007D01*
X86793695Y-72835060D01*
X86798733Y-72815437D01*
X86805137Y-72796734D01*
X86810033Y-72785420D01*
X86810033Y-72785419D01*
X86813181Y-72778145D01*
X86814420Y-72770322D01*
X86814423Y-72770312D01*
X86820099Y-72734476D01*
X86822505Y-72722856D01*
X86831528Y-72687711D01*
X86831528Y-72687710D01*
X86833500Y-72680030D01*
X86833500Y-72659776D01*
X86835051Y-72640065D01*
X86835333Y-72638288D01*
X86838220Y-72620057D01*
X86834059Y-72576038D01*
X86833500Y-72564181D01*
X86833500Y-72114594D01*
X86853502Y-72046473D01*
X86870405Y-72025499D01*
X87750499Y-71145405D01*
X87812811Y-71111379D01*
X87839594Y-71108500D01*
X87895487Y-71108500D01*
X87901939Y-71107128D01*
X87901944Y-71107128D01*
X87994302Y-71087496D01*
X88082288Y-71068794D01*
X88121062Y-71051531D01*
X88250722Y-70993803D01*
X88250724Y-70993802D01*
X88256752Y-70991118D01*
X88411253Y-70878866D01*
X88539040Y-70736944D01*
X88626156Y-70586055D01*
X88631223Y-70577279D01*
X88631224Y-70577278D01*
X88634527Y-70571556D01*
X88693542Y-70389928D01*
X88713504Y-70200000D01*
X88693542Y-70010072D01*
X88634527Y-69828444D01*
X88539040Y-69663056D01*
X88445007Y-69558621D01*
X88415675Y-69526045D01*
X88415674Y-69526044D01*
X88411253Y-69521134D01*
X88256752Y-69408882D01*
X88250724Y-69406198D01*
X88250722Y-69406197D01*
X88088319Y-69333891D01*
X88088318Y-69333891D01*
X88082288Y-69331206D01*
X87988887Y-69311353D01*
X87901944Y-69292872D01*
X87901939Y-69292872D01*
X87895487Y-69291500D01*
X87704513Y-69291500D01*
X87698061Y-69292872D01*
X87698056Y-69292872D01*
X87611113Y-69311353D01*
X87517712Y-69331206D01*
X87511682Y-69333891D01*
X87511681Y-69333891D01*
X87349278Y-69406197D01*
X87349276Y-69406198D01*
X87343248Y-69408882D01*
X87188747Y-69521134D01*
X87184326Y-69526044D01*
X87184325Y-69526045D01*
X87154994Y-69558621D01*
X87060960Y-69663056D01*
X86965473Y-69828444D01*
X86906458Y-70010072D01*
X86905768Y-70016633D01*
X86905768Y-70016635D01*
X86889093Y-70175293D01*
X86862080Y-70240950D01*
X86852878Y-70251218D01*
X85807747Y-71296348D01*
X85799461Y-71303888D01*
X85792982Y-71308000D01*
X85787557Y-71313777D01*
X85746357Y-71357651D01*
X85743602Y-71360493D01*
X85723865Y-71380230D01*
X85721385Y-71383427D01*
X85713682Y-71392447D01*
X85683414Y-71424679D01*
X85679595Y-71431625D01*
X85679593Y-71431628D01*
X85673652Y-71442434D01*
X85662801Y-71458953D01*
X85650386Y-71474959D01*
X85647241Y-71482228D01*
X85647238Y-71482232D01*
X85632826Y-71515537D01*
X85627609Y-71526187D01*
X85606305Y-71564940D01*
X85604334Y-71572615D01*
X85604334Y-71572616D01*
X85601267Y-71584562D01*
X85594863Y-71603266D01*
X85586819Y-71621855D01*
X85585580Y-71629678D01*
X85585577Y-71629688D01*
X85579901Y-71665524D01*
X85577495Y-71677144D01*
X85568472Y-71712289D01*
X85566500Y-71719970D01*
X85566500Y-71740224D01*
X85564949Y-71759934D01*
X85561780Y-71779943D01*
X85562526Y-71787835D01*
X85565941Y-71823961D01*
X85566500Y-71835819D01*
X85566500Y-72285405D01*
X85546498Y-72353526D01*
X85529595Y-72374501D01*
X85319227Y-72584868D01*
X85256915Y-72618893D01*
X85186099Y-72613828D01*
X85129264Y-72571281D01*
X85104453Y-72504760D01*
X85104822Y-72482601D01*
X85112814Y-72406564D01*
X85113504Y-72400000D01*
X85093542Y-72210072D01*
X85034527Y-72028444D01*
X85025436Y-72012697D01*
X84982251Y-71937899D01*
X84939040Y-71863056D01*
X84930520Y-71853593D01*
X84815675Y-71726045D01*
X84815674Y-71726044D01*
X84811253Y-71721134D01*
X84678782Y-71624888D01*
X84662094Y-71612763D01*
X84662093Y-71612762D01*
X84656752Y-71608882D01*
X84644138Y-71603266D01*
X84639750Y-71601312D01*
X84585654Y-71555333D01*
X84565004Y-71487406D01*
X84584356Y-71419098D01*
X84590169Y-71410643D01*
X84595230Y-71403890D01*
X84600615Y-71396705D01*
X84651745Y-71260316D01*
X84658500Y-71198134D01*
X84658500Y-69601866D01*
X84651745Y-69539684D01*
X84600615Y-69403295D01*
X84513261Y-69286739D01*
X84398628Y-69200826D01*
X84356113Y-69143967D01*
X84351087Y-69073148D01*
X84385147Y-69010855D01*
X84398628Y-68999174D01*
X84430372Y-68975383D01*
X91787388Y-68975383D01*
X91803245Y-69293914D01*
X91804076Y-69301443D01*
X91858085Y-69615759D01*
X91859818Y-69623146D01*
X91951196Y-69928695D01*
X91953799Y-69935808D01*
X92081227Y-70228173D01*
X92084669Y-70234929D01*
X92246296Y-70509865D01*
X92250519Y-70516150D01*
X92401463Y-70713934D01*
X92412989Y-70722396D01*
X92425054Y-70715735D01*
X94127980Y-69012810D01*
X94135592Y-68998869D01*
X94135461Y-68997034D01*
X94131210Y-68990420D01*
X92426445Y-67285656D01*
X92413510Y-67278592D01*
X92402949Y-67286252D01*
X92282766Y-67437072D01*
X92278410Y-67443270D01*
X92111059Y-67714764D01*
X92107479Y-67721440D01*
X91973956Y-68011074D01*
X91971206Y-68018125D01*
X91873444Y-68321708D01*
X91871561Y-68329041D01*
X91810979Y-68642170D01*
X91809992Y-68649670D01*
X91787467Y-68967802D01*
X91787388Y-68975383D01*
X84430372Y-68975383D01*
X84506080Y-68918643D01*
X84506081Y-68918642D01*
X84513261Y-68913261D01*
X84600615Y-68796705D01*
X84617495Y-68751678D01*
X84660137Y-68694914D01*
X84726698Y-68670214D01*
X84796047Y-68685422D01*
X84809538Y-68693972D01*
X84937906Y-68787237D01*
X84943248Y-68791118D01*
X84949276Y-68793802D01*
X84949278Y-68793803D01*
X85111681Y-68866109D01*
X85117712Y-68868794D01*
X85211113Y-68888647D01*
X85298056Y-68907128D01*
X85298061Y-68907128D01*
X85304513Y-68908500D01*
X85495487Y-68908500D01*
X85501939Y-68907128D01*
X85501944Y-68907128D01*
X85588887Y-68888647D01*
X85682288Y-68868794D01*
X85688319Y-68866109D01*
X85850722Y-68793803D01*
X85850724Y-68793802D01*
X85856752Y-68791118D01*
X86011253Y-68678866D01*
X86019043Y-68670214D01*
X86134621Y-68541852D01*
X86134622Y-68541851D01*
X86139040Y-68536944D01*
X86234527Y-68371556D01*
X86293542Y-68189928D01*
X86305925Y-68072115D01*
X86312814Y-68006565D01*
X86313504Y-68000000D01*
X86293542Y-67810072D01*
X86234527Y-67628444D01*
X86139040Y-67463056D01*
X86011253Y-67321134D01*
X85856752Y-67208882D01*
X85850724Y-67206198D01*
X85850722Y-67206197D01*
X85688319Y-67133891D01*
X85688318Y-67133891D01*
X85682288Y-67131206D01*
X85588888Y-67111353D01*
X85501944Y-67092872D01*
X85501939Y-67092872D01*
X85495487Y-67091500D01*
X85304513Y-67091500D01*
X85298061Y-67092872D01*
X85298056Y-67092872D01*
X85211112Y-67111353D01*
X85117712Y-67131206D01*
X85111682Y-67133891D01*
X85111681Y-67133891D01*
X84949278Y-67206197D01*
X84949276Y-67206198D01*
X84943248Y-67208882D01*
X84937907Y-67212762D01*
X84937906Y-67212763D01*
X84858561Y-67270411D01*
X84791693Y-67294269D01*
X84722542Y-67278189D01*
X84673062Y-67227275D01*
X84658500Y-67168475D01*
X84658500Y-67001866D01*
X84651745Y-66939684D01*
X84600615Y-66803295D01*
X84530368Y-66709565D01*
X84505520Y-66643059D01*
X84520573Y-66573676D01*
X84570747Y-66523446D01*
X84631194Y-66508000D01*
X92934015Y-66508000D01*
X93002136Y-66528002D01*
G37*
%TD.AperFunction*%
%TD*%
M02*
